<?xml version='1.0' encoding='utf-8'?>
<svg xmlns="http://www.w3.org/2000/svg" version="1.1" width="719" height="719">
<path d="M0 0 C237.27 0 474.54 0 719 0 C719 237.27 719 474.54 719 719 C481.73 719 244.46 719 0 719 C0 481.73 0 244.46 0 0 Z " fill="#0A0A0A" transform="translate(0,0)" />
<path d="M0 0 C2.24863687 0.00028265 4.49727383 0.00012263 6.74591064 -0.0004425 C12.80262946 -0.00072746 18.85932816 0.0051202 24.91604233 0.01213145 C31.26344448 0.01841551 37.61084717 0.01897277 43.95825195 0.02015686 C54.59652085 0.02290411 65.23478187 0.02913503 75.87304688 0.03808594 C86.82226526 0.0472888 97.77148165 0.05435552 108.72070312 0.05859375 C109.39753454 0.05885647 110.07436596 0.0591192 110.77170742 0.05938988 C114.1677455 0.06069508 117.5637836 0.06195875 120.9598217 0.06320179 C149.05785496 0.07353994 177.15588015 0.09120314 205.25390625 0.11352539 C204.64318283 4.64208577 203.84776169 8.76810209 202.40625 13.10571289 C200.30115314 19.75048862 198.72210965 26.44537508 197.24679565 33.2545166 C196.50445113 36.67657589 195.74362167 40.09449198 194.98046875 43.51196289 C194.83123459 44.18046265 194.68200043 44.8489624 194.52824402 45.53771973 C193.20830141 51.40437473 191.69636351 57.20362489 190.10449219 63.00097656 C187.86156712 71.30478769 186.09021506 79.71719702 184.30834961 88.13012695 C184.06995361 89.23710937 183.83155762 90.3440918 183.5859375 91.48461914 C183.37686768 92.47389404 183.16779785 93.46316895 182.95239258 94.48242188 C182.30131394 96.93494703 181.4198195 98.87573466 180.25390625 101.11352539 C178.68905676 101.11710792 178.68905676 101.11710792 177.09259415 101.12076283 C151.63264917 101.17972627 126.17279755 101.25571216 100.71295547 101.3492403 C88.4004426 101.39408257 76.08795791 101.43352355 63.77539062 101.45996094 C53.03569485 101.4830351 42.29608913 101.51653718 31.55646491 101.56222695 C25.87725249 101.58603283 20.19812855 101.60484399 14.51886749 101.6111393 C9.157394 101.61724784 3.79614654 101.63745218 -1.56524277 101.6678009 C-3.51769558 101.67648971 -5.47017805 101.6803231 -7.42264938 101.67853355 C-25.0627764 101.6674848 -42.05071427 103.63676883 -59.05859375 108.42602539 C-60.70686157 108.88005737 -60.70686157 108.88005737 -62.38842773 109.34326172 C-70.78937848 111.71406317 -78.77693193 114.5552999 -86.74609375 118.11352539 C-87.50535156 118.42547852 -88.26460937 118.73743164 -89.046875 119.05883789 C-112.92475143 129.04167888 -133.04305751 144.46630572 -151.74609375 162.11352539 C-153.03 163.3162207 -153.03 163.3162207 -154.33984375 164.54321289 C-189.00369231 198.0004085 -209.963421 249.70634266 -211.05859375 297.53930664 C-211.10282178 300.43919673 -211.11886222 303.33832012 -211.12109375 306.23852539 C-211.12308777 306.91541412 -211.12508179 307.59230286 -211.12713623 308.28970337 C-211.11790398 335.85677183 -206.4452415 367.63266147 -192.88671875 391.98071289 C-191.74609375 394.11352539 -191.74609375 394.11352539 -190.4140625 397.28149414 C-184.26481013 411.82736271 -175.5922564 424.85317596 -165.74609375 437.11352539 C-164.90853028 438.17577009 -164.0712725 439.23825592 -163.234375 440.30102539 C-159.01941886 445.56793153 -154.61768815 450.45266153 -149.74609375 455.11352539 C-148.98296875 455.89727539 -148.21984375 456.68102539 -147.43359375 457.48852539 C-146.54671875 458.35477539 -145.65984375 459.22102539 -144.74609375 460.11352539 C-144.11960938 460.73614258 -143.493125 461.35875977 -142.84765625 462.00024414 C-132.76838294 471.58071382 -116.54764863 485.29751307 -102.74609375 488.11352539 C-102.74609375 488.77352539 -102.74609375 489.43352539 -102.74609375 490.11352539 C-101.88371094 490.39454102 -101.02132812 490.67555664 -100.1328125 490.96508789 C-96.90378422 492.0600525 -93.73480869 493.24960428 -90.55859375 494.48852539 C-88.28794958 495.36401615 -86.01712279 496.23903346 -83.74609375 497.11352539 C-82.85792969 497.45641602 -81.96976563 497.79930664 -81.0546875 498.15258789 C-68.94804924 502.69950852 -56.59649899 506.45460988 -43.74609375 508.11352539 C-43.74609375 508.77352539 -43.74609375 509.43352539 -43.74609375 510.11352539 C-71.52960602 514.47232954 -102.63789607 516.39633104 -130.0390625 508.82446289 C-132.68769495 508.12886245 -135.29223717 507.66313102 -137.99609375 507.23852539 C-145.45627232 505.93970293 -152.58065858 503.50610568 -159.74609375 501.11352539 C-160.9371875 500.72036133 -162.12828125 500.32719727 -163.35546875 499.92211914 C-217.5645631 481.34140015 -259.36387602 440.86873939 -284.76171875 390.15258789 C-293.5694634 371.17889497 -300.30975145 350.19083886 -303.37255859 329.50561523 C-303.73444375 327.18813109 -304.17587445 324.90059966 -304.640625 322.60180664 C-311.81324492 284.71668099 -306.93361547 242.45341964 -294.74609375 206.11352539 C-294.15841062 204.28075088 -293.57253969 202.44739451 -292.98828125 200.61352539 C-278.56018587 155.79833414 -253.13538513 117.47921034 -220.12109375 84.23852539 C-219.63971954 83.75170288 -219.15834534 83.26488037 -218.66238403 82.76330566 C-212.03980431 76.08496487 -205.13210132 69.94067709 -197.74609375 64.11352539 C-197.14941895 63.63189941 -196.55274414 63.15027344 -195.93798828 62.65405273 C-186.9929468 55.43621009 -177.5062941 49.16599962 -167.74609375 43.11352539 C-166.98055176 42.63753906 -166.21500977 42.16155273 -165.42626953 41.67114258 C-163.14540594 40.26261262 -160.85471415 38.87202076 -158.55859375 37.48852539 C-157.86411133 37.06249023 -157.16962891 36.63645508 -156.45410156 36.19750977 C-152.54448318 33.88112289 -149.36471127 32.53013475 -144.74609375 32.11352539 C-144.74609375 31.45352539 -144.74609375 30.79352539 -144.74609375 30.11352539 C-143.64575806 29.69006836 -143.64575806 29.69006836 -142.52319336 29.25805664 C-140.02133538 28.22696124 -137.69847644 27.07147702 -135.3125 25.80102539 C-128.98560043 22.60890739 -122.38929819 20.37213674 -115.68359375 18.11352539 C-114.38580149 17.6727538 -113.0880315 17.23191664 -111.7902832 16.79101562 C-93.33411354 10.54774027 -75.51475002 5.79198594 -56.11010742 3.81420898 C-52.06326124 3.39718936 -48.11190479 2.86474398 -44.12109375 2.05102539 C-29.71452699 -0.73404321 -14.60431615 -0.02594565 0 0 Z " fill="#EDE9E0" transform="translate(385.74609375,76.886474609375)" />
<path d="M0 0 C26.01477372 -0.170391 51.99481437 0.31784918 78 1 C78.92577877 7.3313577 79.18901478 13.52355517 79.23828125 19.91796875 C79.24798447 20.96085052 79.25768768 22.0037323 79.26768494 23.07821655 C79.29258771 26.44801698 79.30520995 29.81761676 79.3125 33.1875 C79.31511841 34.33427216 79.31773682 35.48104431 79.32043457 36.66256714 C79.32479606 54.46381902 78.50218952 71.50420027 75 89 C74.82919922 89.89315918 74.65839844 90.78631836 74.48242188 91.70654297 C71.92105614 104.92771022 68.08602272 117.53889646 63 130 C62.67370605 130.80260254 62.34741211 131.60520508 62.01123047 132.43212891 C50.01888548 161.68392823 34.65905692 188.32765152 13.16796875 211.64453125 C11.71173128 213.22671358 10.27690488 214.82884943 8.86328125 216.44921875 C-1.5037064 228.30518128 -13.24243254 237.8708754 -26 247 C-26.59619141 247.4316748 -27.19238281 247.86334961 -27.80664062 248.30810547 C-43.49159021 259.5789124 -60.92776859 268.28228695 -79 275 C-80.58423712 275.68541479 -82.16764344 276.37275483 -83.75 277.0625 C-89.32379706 279.31075428 -95.1415085 280.70725213 -100.96191406 282.16235352 C-104.95937607 283.16669305 -108.87514709 284.25843007 -112.77734375 285.58984375 C-119.57058951 287.89706738 -125.95741529 288.27543527 -133.11328125 288.62109375 C-137.1234011 288.86694995 -141.04823168 289.4398629 -145.0234375 290.015625 C-156.07495718 291.50312609 -167.18149662 291.35124752 -178.3125 291.3125 C-179.42116425 291.31034485 -180.52982849 291.3081897 -181.67208862 291.30596924 C-205.33062858 291.23211168 -227.44192805 289.42009696 -250.40625 283.40234375 C-254.10527285 282.43603048 -257.77237373 281.66062651 -261.54296875 281.03125 C-267.16145869 280.05536476 -272.42782561 278.41507972 -277.8125 276.5625 C-278.71419922 276.26279297 -279.61589844 275.96308594 -280.54492188 275.65429688 C-285.22999987 274.06968869 -289.62350653 272.33190263 -294 270 C-297.28356035 268.55523345 -300.58534316 267.17077388 -303.90234375 265.8046875 C-309.02601817 263.68935096 -314.09589493 261.58827768 -319 259 C-319 258.34 -319 257.68 -319 257 C-319.66386719 256.9278125 -320.32773437 256.855625 -321.01171875 256.78125 C-325.07761538 255.71827049 -328.25856769 253.69697634 -331.8125 251.5 C-332.50537109 251.08363281 -333.19824219 250.66726563 -333.91210938 250.23828125 C-335.62920572 249.19279796 -337.31759538 248.10044076 -339 247 C-339 246.67 -339 246.34 -339 246 C-336.36 246 -333.72 246 -331 246 C-331 246.66 -331 247.32 -331 248 C-329.9584375 247.96519531 -328.916875 247.93039062 -327.84375 247.89453125 C-318.86373017 247.69070392 -310.65516952 248.31959694 -301.87890625 250.24609375 C-291.25132013 252.31167695 -280.53731051 252.24001703 -269.75 252.25 C-268.89627808 252.25133942 -268.04255615 252.25267883 -267.16296387 252.25405884 C-255.46571391 252.25010319 -243.89066274 251.85186255 -232.25 250.6875 C-231.06374023 250.56987305 -229.87748047 250.45224609 -228.65527344 250.33105469 C-222.37628026 249.62374085 -216.46489666 248.48956092 -210.41650391 246.65185547 C-207.31060604 245.81403497 -204.27235637 245.50948243 -201.0703125 245.30859375 C-198.91586141 245.0698493 -198.91586141 245.0698493 -196.70703125 244.07421875 C-194.04280719 243.01698698 -191.43571075 242.39165352 -188.63452148 241.80932617 C-172.51973465 238.43142989 -157.17395859 232.22382039 -142.21484375 225.4453125 C-140.3575342 224.61031307 -138.48779174 223.80005815 -136.59082031 223.05957031 C-117.77347136 215.36382074 -99.43746481 203.15940878 -84 190 C-82.86871159 189.05312011 -81.73718271 188.10652748 -80.60546875 187.16015625 C-69.98543987 178.22634357 -60.65917098 168.87827753 -52 158 C-51.01386719 156.81470703 -51.01386719 156.81470703 -50.0078125 155.60546875 C-33.34450368 135.42881169 -21.29230621 111.74231889 -13 87 C-12.58113525 85.75790771 -12.58113525 85.75790771 -12.15380859 84.49072266 C-2.98449976 56.83168337 -0.84034988 28.95449408 0 0 Z " fill="#EDE9E0" transform="translate(556,363)" />
<path d="M0 0 C4.48690479 7.89854541 7.77254052 15.69939035 10.25 24.4375 C10.48348145 25.25758545 10.71696289 26.0776709 10.95751953 26.92260742 C11.68734158 29.60531643 12.3554166 32.29550803 13 35 C13.27287842 36.14033691 13.54575684 37.28067383 13.8269043 38.45556641 C15.83956339 47.56461977 16.42924275 56.18859858 16.3125 65.5 C16.31572266 66.78519531 16.31894531 68.07039063 16.32226562 69.39453125 C16.2549831 81.56655086 15.41599874 93.55854873 11 105 C5.68459358 105.12593263 0.84091046 104.91848552 -4.37524414 103.93237305 C-26.67101091 99.76324593 -49.88098692 101.74789241 -72.31640625 103.81640625 C-75.21843823 104.0149441 -78.0920851 104.02989046 -81 104 C-81 104.66 -81 105.32 -81 106 C-82.02770508 106.20363159 -82.02770508 106.20363159 -83.07617188 106.41137695 C-86.21887288 107.03816649 -89.35940386 107.67525113 -92.5 108.3125 C-93.57765625 108.52583984 -94.6553125 108.73917969 -95.765625 108.95898438 C-101.78898673 110.18936619 -107.28672634 111.74912321 -113 114 C-115.40625 114.484375 -115.40625 114.484375 -117.5 114.75 C-123.27071895 115.77790931 -128.35331584 118.17500106 -133.64257812 120.61230469 C-138.8305947 123 -138.8305947 123 -141 123 C-141.33 121.68 -141.66 120.36 -142 119 C-142.66 119 -143.32 119 -144 119 C-146.45029331 113.28264895 -147.33266291 109.20970773 -147 103 C-147.66 103 -148.32 103 -149 103 C-153.51821861 78.29579983 -153.51821861 78.29579983 -153.875 70.625 C-153.96258258 67.91857856 -153.96258258 67.91857856 -154.4375 64.9375 C-154.88289024 60.48359759 -155.03075759 57.38060469 -152.28515625 53.703125 C-149.35725198 51.16838323 -146.26110183 49.06897225 -143 47 C-142.20110352 46.47696289 -141.40220703 45.95392578 -140.57910156 45.41503906 C-116.97071976 30 -116.97071976 30 -110 30 C-110 29.34 -110 28.68 -110 28 C-100.2774025 24.17809013 -90.53762239 20.40392289 -80.77703857 16.68011475 C-79.28722847 16.10992914 -77.79981341 15.53349098 -76.31298828 14.95556641 C-53.76285697 6.25917103 -24.21366971 -0.53949199 0 0 Z " fill="#D49A4B" transform="translate(499,304)" />
<path d="M0 0 C2.01238602 -0.01366387 4.02467187 -0.04015913 6.03692627 -0.06692505 C13.00723101 -0.06295412 19.13032602 0.44289164 25.78204346 2.58615112 C29.20406218 3.63043586 32.56181999 3.96320478 36.11651611 4.29855347 C36.11651611 4.95855347 36.11651611 5.61855347 36.11651611 6.29855347 C37.39526611 6.56667847 38.67401611 6.83480347 39.99151611 7.11105347 C41.70778686 7.47091669 43.41448774 7.87643237 45.11651611 8.29855347 C45.82517822 8.47217407 46.53384033 8.64579468 47.26397705 8.82467651 C54.32043885 10.72638314 60.30837373 13.84480217 66.61651611 17.48605347 C67.58460205 18.02552612 68.55268799 18.56499878 69.55010986 19.12081909 C85.3192968 28.10608064 102.32568538 41.82272424 112.11651611 57.29855347 C112.11651611 57.95855347 112.11651611 58.61855347 112.11651611 59.29855347 C111.42952637 59.38830444 110.74253662 59.47805542 110.034729 59.57052612 C84.95813735 62.90852912 58.9525529 67.37472981 35.51495361 77.33370972 C32.69274728 78.46902725 29.82827679 79.37866459 26.92901611 80.29855347 C23.40854802 81.43739552 20.27863275 82.6255532 17.11651611 84.54855347 C14.11651611 86.29855347 14.11651611 86.29855347 10.11651611 86.29855347 C10.11651611 86.95855347 10.11651611 87.61855347 10.11651611 88.29855347 C9.20901611 88.66980347 8.30151611 89.04105347 7.36651611 89.42355347 C-2.4480829 93.3061316 -2.4480829 93.3061316 -10.88348389 99.29855347 C-14.63008609 98.9818636 -16.84458821 97.8904453 -19.71160889 95.52511597 C-20.41970703 94.95325562 -21.12780518 94.38139526 -21.85736084 93.79220581 C-22.60848145 93.17555054 -23.35960205 92.55889526 -24.13348389 91.92355347 C-42.67236492 77.13983476 -63.31393341 65.23871217 -84.63348389 54.91964722 C-87.88348389 53.29855347 -87.88348389 53.29855347 -90.45770264 51.72042847 C-93.13254699 50.15256479 -95.77151468 49.13285596 -98.69598389 48.11105347 C-99.6718042 47.76687378 -100.64762451 47.42269409 -101.65301514 47.06808472 C-102.75709717 46.68716675 -102.75709717 46.68716675 -103.88348389 46.29855347 C-103.31963791 42.5367751 -101.77526788 40.83999297 -99.07098389 38.23605347 C-98.04037842 37.22865112 -98.04037842 37.22865112 -96.98895264 36.20089722 C-91.56315534 31.29855347 -91.56315534 31.29855347 -88.88348389 31.29855347 C-88.88348389 30.63855347 -88.88348389 29.97855347 -88.88348389 29.29855347 C-86.25933537 27.07165597 -83.31255695 25.26080756 -80.44598389 23.36105347 C-79.66287842 22.82286987 -78.87977295 22.28468628 -78.07293701 21.73019409 C-72.87776976 18.2624734 -67.91351512 15.93523758 -61.88348389 14.29855347 C-61.88348389 13.63855347 -61.88348389 12.97855347 -61.88348389 12.29855347 C-53.00748991 9.04893008 -44.24958987 5.91323755 -35.00848389 3.84152222 C-32.91359803 3.49868228 -32.91359803 3.49868228 -31.88348389 2.29855347 C-21.35765955 0.38603631 -10.67480807 0.07036363 0 0 Z " fill="#9E6D3B" transform="translate(374.88348388671875,227.70144653320313)" />
<path d="M0 0 C4.37459502 0.77153351 8.1465012 2.16207067 12.234375 3.859375 C14.00295952 4.58879122 15.78372764 5.28974173 17.578125 5.953125 C27.41077511 9.71762533 36.31823849 15.14987856 45.37548828 20.46435547 C47.82478268 21.89747749 50.28317309 23.31311901 52.74609375 24.72265625 C60.86323068 29.39114441 68.53313789 34.32925147 76 40 C78.05959068 41.50399219 80.12205325 43.00406017 82.1875 44.5 C83.79166667 45.66666667 85.39583333 46.83333333 87 48 C85.68791508 51.01507181 84.47248822 52.69317324 81.796875 54.59375 C81.15298828 55.06079346 80.50910156 55.52783691 79.84570312 56.0090332 C79.15412109 56.50105225 78.46253906 56.99307129 77.75 57.5 C70.34032671 62.90721746 63.34912472 68.6587772 56.46435547 74.71484375 C55.18300515 75.83938995 53.89117236 76.9519691 52.59765625 78.0625 C48.19130904 81.85145115 44.06657994 85.85117463 40 90 C37.41855351 92.59433224 34.82378584 95.1717842 32.203125 97.7265625 C25.64482447 104.14034875 19.6641927 110.76890863 14 118 C13.11807422 119.10357379 12.23522071 120.20640667 11.3515625 121.30859375 C6.07368161 127.92476456 1.00343812 134.63287471 -3.73999023 141.64575195 C-6.67699865 145.89233288 -6.67699865 145.89233288 -10 147 C-10.77349782 145.4805201 -11.5436448 143.95933433 -12.3125 142.4375 C-12.74175781 141.59058594 -13.17101562 140.74367188 -13.61328125 139.87109375 C-16.89158872 133.08361208 -19.1227653 126.46522584 -21.0625 119.1875 C-21.31837891 118.25357422 -21.57425781 117.31964844 -21.83789062 116.35742188 C-22.58812447 113.578278 -23.30242925 110.79279407 -24 108 C-24.20447754 107.21093262 -24.40895508 106.42186523 -24.61962891 105.60888672 C-26.2309357 98.68873295 -26.30537168 91.85409345 -26.26074219 84.77001953 C-26.25009187 82.76727645 -26.26166823 80.76445557 -26.2734375 78.76171875 C-26.25612312 69.97466893 -25.47910411 61.65562289 -24 53 C-23.34 53 -22.68 53 -22 53 C-22.103125 51.96875 -22.20625 50.9375 -22.3125 49.875 C-22.3125 43.1797636 -19.42387229 37.13333431 -17 31 C-16.42378906 29.47632813 -16.42378906 29.47632813 -15.8359375 27.921875 C-11.92824561 17.97985618 -6.8878697 8.20714986 0 0 Z " fill="#454427" transform="translate(257,289)" />
<path d="M0 0 C0.08636719 0.8765625 0.17273438 1.753125 0.26171875 2.65625 C2.99794037 27.35755345 8.15974924 52.2659665 20.0625 74.24072266 C21.45377345 76.85153425 22.71770181 79.52185295 24 82.1875 C33.02318102 100.20940898 45.7006811 118.7006811 60 133 C60 133.99 60 134.98 60 136 C37.38074497 143.53975168 6.6207823 134.56260454 -14 125 C-15.35223132 124.02570629 -16.68860404 123.02860022 -18 122 C-19.79923618 121.11823693 -21.61341158 120.2666311 -23.4375 119.4375 C-38.4740336 112.03828005 -51.24419265 99.62912801 -62 87 C-62.87978516 86.05640625 -62.87978516 86.05640625 -63.77734375 85.09375 C-65.25 83.375 -65.25 83.375 -67 80 C-65.23442616 73.72092912 -62.20865193 68.96581606 -58.375 63.75 C-57.83939453 63.00838623 -57.30378906 62.26677246 -56.75195312 61.50268555 C-55.17686481 59.3284709 -53.58922722 57.16388931 -52 55 C-51.21043119 53.90791796 -50.42131373 52.81550935 -49.6328125 51.72265625 C-44.28037091 44.41941635 -38.48034681 37.54451338 -32.51733398 30.73852539 C-31.48348 29.55395995 -30.45722297 28.36273108 -29.43774414 27.16577148 C-24.45643081 21.35973255 -19.10684222 15.95819418 -13.6875 10.5625 C-12.78193359 9.65306641 -11.87636719 8.74363281 -10.94335938 7.80664062 C-10.07904297 6.94361328 -9.21472656 6.08058594 -8.32421875 5.19140625 C-7.54135498 4.40967041 -6.75849121 3.62793457 -5.9519043 2.82250977 C-3.8573024 0.86676203 -2.87712727 0 0 0 Z " fill="#7E7B44" transform="translate(327,377)" />
<path d="M0 0 C-0.61347872 4.89824417 -2.70526228 8.77129738 -5 13.0625 C-5.40226807 13.81619873 -5.80453613 14.56989746 -6.21899414 15.34643555 C-9.90173361 22.08581292 -14.13928306 28.04275769 -19 34 C-19.83629743 35.05179725 -20.67222642 36.10388754 -21.5078125 37.15625 C-26.23431105 43.03881844 -31.11005456 48.28128654 -37 53 C-37.74636719 53.63292969 -38.49273437 54.26585937 -39.26171875 54.91796875 C-50.68097329 64.42481995 -75.5594645 83.02823769 -91.14453125 81.8359375 C-97.97254314 78.75973846 -103.08741748 70.60553404 -107.640625 64.921875 C-110.08154069 61.89901915 -112.60034063 58.95308642 -115.125 56 C-119.62404584 50.59422338 -123.40691629 45.03607995 -127 39 C-127.87209461 37.56882682 -128.74451487 36.13785205 -129.6171875 34.70703125 C-130.53762946 33.18039298 -131.45690117 31.65304854 -132.375 30.125 C-132.81650391 29.39901611 -133.25800781 28.67303223 -133.71289062 27.92504883 C-135.85894269 24.3058949 -137.54800058 21.2688834 -138 17 C-136.54166667 16.41666667 -135.08333333 15.83333333 -133.625 15.25 C-132.71363281 14.88519531 -131.80226563 14.52039063 -130.86328125 14.14453125 C-129.02806775 13.41094659 -127.19218875 12.6790233 -125.35546875 11.94921875 C-124.51628906 11.61535156 -123.67710937 11.28148437 -122.8125 10.9375 C-122.05582031 10.63714844 -121.29914063 10.33679688 -120.51953125 10.02734375 C-118.602402 9.24563058 -116.71035519 8.40208823 -114.83203125 7.53125 C-81.51726276 -6.7337434 -35.19986933 -6.57795111 0 0 Z " fill="#EAC55E" transform="translate(503,427)" />
<path d="M0 0 C2.64 0 5.28 0 8 0 C8 0.66 8 1.32 8 2 C9.0415625 1.96519531 10.083125 1.93039062 11.15625 1.89453125 C21.48191407 1.66164889 30.93497564 2.72419369 41 5 C41 5.33 41 5.66 41 6 C35.84033155 6.0905205 31.11744174 5.73106311 26 5 C23.3263287 4.91983702 20.67581319 4.95305591 18 5 C16.98888907 8.04913228 16.98888907 8.04913228 18 11 C13.74693457 9.47017797 10.00735822 7.31799136 6.1875 4.9375 C5.59001953 4.57333984 4.99253906 4.20917969 4.37695312 3.83398438 C2.89859629 2.91993746 1.44651932 1.96364025 0 1 C0 0.67 0 0.34 0 0 Z " fill="#7E7B44" transform="translate(217,609)" />
<path d="M0 0 C0.33 0 0.66 0 1 0 C3.9979872 13.44738448 2.82671417 28.85705906 -1 42 C-1.33 42 -1.66 42 -2 42 C-1.93941406 41.23042969 -1.87882812 40.46085937 -1.81640625 39.66796875 C-0.85295168 26.46122991 -0.44843919 13.2325608 0 0 Z " fill="#2D251E" transform="translate(513,357)" />
<path d="M0 0 C0.66 0.33 1.32 0.66 2 1 C-7.57 10.57 -17.14 20.14 -27 30 C-27.66 29.67 -28.32 29.34 -29 29 C-19.33333333 19.33333333 -9.66666667 9.66666667 0 0 Z " fill="#454427" transform="translate(310,365)" />
<path d="M0 0 C0.66 0.33 1.32 0.66 2 1 C-0.97 3.97 -3.94 6.94 -7 10 C-3.535 11.98 -3.535 11.98 0 14 C-0.99 14.495 -0.99 14.495 -2 15 C-4.35981813 14.06421005 -6.69631264 13.06652192 -9 12 C-8.45015228 8.12488273 -6.72444669 6.40423494 -3.9375 3.75 C-3.20402344 3.04359375 -2.47054688 2.3371875 -1.71484375 1.609375 C-1.14894531 1.07828125 -0.58304687 0.5471875 0 0 Z " fill="#9E6D3B" transform="translate(280,262)" />
<path d="M0 0 C3.63 0.33 7.26 0.66 11 1 C11 1.66 11 2.32 11 3 C6.9472484 3.98248524 3.16138263 4.08159574 -1 4 C-0.67 2.68 -0.34 1.36 0 0 Z " fill="#7E7B44" transform="translate(331,584)" />
<path d="M0 0 C2.0625 0.4375 2.0625 0.4375 4 1 C0.14522751 3.56984833 -3.52040582 4.85814266 -8 6 C-8.33 7.32 -8.66 8.64 -9 10 C-9.66 9.34 -10.32 8.68 -11 8 C-11 7.01 -11 6.02 -11 5 C-9.93458984 4.58427734 -9.93458984 4.58427734 -8.84765625 4.16015625 C-7.46900391 3.61681641 -7.46900391 3.61681641 -6.0625 3.0625 C-5.14597656 2.70285156 -4.22945313 2.34320313 -3.28515625 1.97265625 C-1.07581467 1.2003782 -1.07581467 1.2003782 0 0 Z " fill="#EAC55E" transform="translate(376,439)" />
<path d="M0 0 C0.99 0.33 1.98 0.66 3 1 C3.66 4.3 4.32 7.6 5 11 C4.34 11 3.68 11 3 11 C2.49632243 9.54293274 1.99717444 8.08429904 1.5 6.625 C1.2215625 5.81289063 0.943125 5.00078125 0.65625 4.1640625 C0 2 0 2 0 0 Z " fill="#2D251E" transform="translate(504,320)" />
<path d="M0 0 C2.64 0 5.28 0 8 0 C7.67 1.32 7.34 2.64 7 4 C4.97954558 3.39816251 2.97888961 2.72693904 1 2 C0.67 1.34 0.34 0.68 0 0 Z " fill="#7E7B44" transform="translate(217,609)" />
</svg>