<?xml version="1.0" encoding="UTF-8"?>
<svg version="1.1" xmlns="http://www.w3.org/2000/svg" width="1254" height="1254">
<path d="M0 0 C413.82 0 827.64 0 1254 0 C1254 413.82 1254 827.64 1254 1254 C840.18 1254 426.36 1254 0 1254 C0 840.18 0 426.36 0 0 Z " fill="#FDFDFD" transform="translate(0,0)"/>
<path d="M0 0 C5.0567391 0.01904456 10.11348647 0.0205387 15.1702559 0.02407622 C24.69984428 0.03331658 34.2293266 0.0578191 43.75886875 0.08812469 C54.62747136 0.12192166 65.49607963 0.1382176 76.36472189 0.153211 C98.67965319 0.18437804 120.99448974 0.23697857 143.30933976 0.30418181 C142.33694361 9.78154568 142.33694361 9.78154568 141.35719132 13.939924 C141.17319779 14.73235503 140.98920426 15.52478606 140.79963517 16.34123015 C140.60174394 17.16947295 140.4038527 17.99771575 140.19996476 18.85105681 C139.99127763 19.74294707 139.78259049 20.63483733 139.56757951 21.55375457 C138.90306202 24.38840744 138.23132124 27.2212902 137.55933976 30.05418181 C137.1239703 31.90693517 136.68907121 33.75979911 136.25465226 35.61277556 C135.16821358 40.24036538 134.07370569 44.86599972 132.97608781 49.49094939 C132.29369891 52.37017578 131.61478333 55.25020636 130.93629289 58.13035369 C130.49302619 60.00602664 130.04967006 61.88167845 129.60621476 63.75730681 C129.40481889 64.61419097 129.20342301 65.47107512 128.99592423 66.35392547 C128.80383378 67.16412139 128.61174333 67.97431731 128.41383195 68.80906463 C128.24824784 69.51057647 128.08266374 70.21208831 127.91206193 70.93485808 C127.1125436 74.07779498 126.20421205 77.18722787 125.30933976 80.30418181 C124.47556621 80.30657017 123.64179265 80.30895852 122.78275323 80.31141925 C102.42241202 80.37075535 82.06218735 80.44642306 61.7019732 80.53989673 C51.85561154 80.58471433 42.00928492 80.62416072 32.16285539 80.65061736 C23.57295988 80.67371179 14.98317658 80.70723571 6.39337027 80.75288337 C1.8521664 80.77666249 -2.68892741 80.79549089 -7.23019195 80.80179572 C-11.51975119 80.80791677 -15.80902938 80.82816377 -20.0984838 80.85845733 C-21.65830878 80.86712672 -23.21817067 80.87098373 -24.77801871 80.86918998 C-39.55554814 80.85758006 -53.98052383 82.79946429 -68.19066024 86.99168181 C-69.06101912 87.24586883 -69.93137801 87.50005584 -70.82811141 87.76194549 C-96.2723538 95.48654465 -119.27386056 109.52533717 -138.30540633 127.96580291 C-139.49992168 129.11989757 -140.71278106 130.2549504 -141.92894149 131.38621306 C-155.94855703 144.73153848 -166.41060982 162.48261839 -173.69066024 180.30418181 C-174.03355086 181.09308806 -174.37644149 181.88199431 -174.72972274 182.69480681 C-179.83385412 194.77328566 -182.55062291 207.42306539 -184.69066024 220.30418181 C-184.97296493 221.88972869 -184.97296493 221.88972869 -185.26097274 223.50730681 C-188.90724686 255.7271109 -183.23269725 291.08901375 -167.61937118 319.59666228 C-166.7845833 321.13149572 -165.98891991 322.68745529 -165.19847274 324.24558806 C-147.5571771 358.4816618 -115.88933611 383.91206673 -79.69066024 396.30418181 C-71.09891398 398.91210248 -62.40559674 401.14917117 -53.69066024 403.30418181 C-53.69066024 403.63418181 -53.69066024 403.96418181 -53.69066024 404.30418181 C-64.1245942 406.11126842 -74.19214294 406.66901092 -84.75316024 406.61668181 C-85.51934676 406.614859 -86.28553329 406.61303618 -87.07493758 406.61115813 C-99.47895011 406.56162598 -111.52750289 405.9173702 -123.69066024 403.30418181 C-124.4771495 403.13789275 -125.26363875 402.97160369 -126.07396102 402.80027556 C-159.55753282 395.448729 -189.59636164 378.51442291 -213.69066024 354.30418181 C-214.60460555 353.3902365 -215.51855086 352.47629119 -216.46019149 351.53465056 C-251.70405354 314.51471987 -262.5283126 264.31441268 -261.78392196 214.83396697 C-261.61867469 208.57966063 -261.08204981 202.50771147 -260.03245711 196.3359201 C-259.65968854 194.1200772 -259.34146452 191.89893689 -259.01878524 189.67527556 C-253.16731683 152.35933229 -236.17139888 115.92513893 -212.07054305 86.96482635 C-210.67599894 85.28653742 -209.30454769 83.59100883 -207.93284774 81.89402556 C-195.73301185 67.01838143 -181.49204244 54.24242389 -165.69066024 43.30418181 C-165.01567489 42.83673553 -164.34068954 42.36928924 -163.64525008 41.88767791 C-113.82632472 7.78494718 -58.99743646 -0.26058912 0 0 Z " fill="#182237" transform="translate(660.690660238266,189.69581818580627)"/>
<path d="M0 0 C6.758618 -0.0255578 13.51722332 -0.04295331 20.27587891 -0.05493164 C22.57048 -0.05993042 24.86507795 -0.06673164 27.15966797 -0.07543945 C30.4762449 -0.0877017 33.79277937 -0.09327302 37.109375 -0.09765625 C38.62419464 -0.10539818 38.62419464 -0.10539818 40.1696167 -0.11329651 C47.15813716 -0.11383507 54.04529944 0.32148442 61 1 C62.54964297 9.88642606 63.38752364 18.47671788 63.375 27.5 C63.37338867 28.73959473 63.37177734 29.97918945 63.37011719 31.25634766 C63.13024535 49.92637197 60.8842938 69.21117782 55 87 C54.75910645 87.74443359 54.51821289 88.48886719 54.27001953 89.25585938 C45.11872597 117.34298941 32.21307893 141.9045039 12.0859375 163.7265625 C10.1477745 165.8389424 8.28976729 167.99998072 6.4375 170.1875 C2.9245548 174.19545111 -0.88137878 177.62473969 -5 181 C-6.00933594 181.8353125 -7.01867187 182.670625 -8.05859375 183.53125 C-16.58344749 190.47330525 -25.51476078 196.45278672 -35 202 C-35.60392578 202.35690918 -36.20785156 202.71381836 -36.83007812 203.08154297 C-81.80998119 229.36096493 -141.35897279 234.16777217 -192 225 C-193.258125 224.7834375 -194.51625 224.566875 -195.8125 224.34375 C-199.24844289 223.67564999 -202.61120508 222.87666651 -206 222 C-206.763125 221.80567383 -207.52625 221.61134766 -208.3125 221.41113281 C-226.14533029 216.80844629 -242.28108365 210.06864072 -258.625 201.625 C-259.63997559 201.10083496 -260.65495117 200.57666992 -261.70068359 200.03662109 C-262.63734863 199.54242676 -263.57401367 199.04823242 -264.5390625 198.5390625 C-265.37646973 198.09771973 -266.21387695 197.65637695 -267.07666016 197.20166016 C-269 196 -269 196 -270 194 C-269.4121875 194.10957031 -268.824375 194.21914063 -268.21875 194.33203125 C-265.5357024 194.80619052 -262.84848617 195.24296234 -260.15625 195.66162109 C-258.65514359 195.89718874 -257.15520524 196.14027113 -255.65625 196.38916016 C-193.84258374 206.44103528 -126.18493313 193.29429632 -75.01171875 156.57324219 C-63.7523848 148.25695361 -52.77304641 138.94689862 -44 128 C-43.23171875 127.04609375 -42.4634375 126.0921875 -41.671875 125.109375 C-15.19589934 91.73176205 -2.22934689 52.73104867 -0.44921875 10.421875 C-0.40518921 9.41431152 -0.36115967 8.40674805 -0.3157959 7.36865234 C-0.20872195 4.91250718 -0.10348987 2.45629834 0 0 Z " fill="#182237" transform="translate(778,417)"/>
<path d="M0 0 C3.02288181 6.45171893 5.47175602 12.98208485 7.6875 19.75 C7.99494141 20.66910156 8.30238281 21.58820313 8.61914062 22.53515625 C11.52416911 31.3201658 12.1863483 39.10471165 12.18530273 48.33496094 C12.1874652 50.46570554 12.20557687 52.59591098 12.22460938 54.7265625 C12.3162951 76.52555735 12.3162951 76.52555735 8 83 C6.90171875 82.855625 5.8034375 82.71125 4.671875 82.5625 C-19.75530392 79.65314909 -45.52009587 78.90945797 -69.59228516 84.44873047 C-71.91286041 84.98004855 -74.23822802 85.45208901 -76.57421875 85.91015625 C-86.29872678 87.89985322 -95.11151556 91.26719604 -104.18505859 95.24316406 C-106.74334394 96.30997662 -109.35696782 97.16968507 -112 98 C-115.97349786 92.89121704 -117.30807166 87.95480624 -118.6875 81.6875 C-118.89955078 80.78837891 -119.11160156 79.88925781 -119.33007812 78.96289062 C-120.45463284 74.05671027 -121.30964022 69.22056151 -121.77514648 64.20874023 C-121.92827521 62.70455395 -122.12635848 61.2044253 -122.36352539 59.71118164 C-123.2509122 54.08988434 -123.89629037 48.47061881 -122 43 C-118.13210591 37.97595625 -112.24824817 35.18733675 -106.69970703 32.37060547 C-103.96475401 30.98210608 -101.2948476 29.50646761 -98.62109375 28.00390625 C-90.09622996 23.28721736 -81.59445341 19.07500648 -72.30078125 16.09765625 C-69.59671863 15.19843542 -67.04475535 14.19145879 -64.421875 13.08984375 C-58.39850293 10.65805458 -52.23648183 9.05296262 -45.9375 7.5 C-44.12258057 7.04935181 -44.12258057 7.04935181 -42.27099609 6.58959961 C-12.74887263 -0.54020647 -12.74887263 -0.54020647 0 0 Z " fill="#4882F1" transform="translate(733,370)"/>
<path d="M0 0 C0.72532928 -0.00201416 1.45065857 -0.00402832 2.19796753 -0.00610352 C21.42524163 0.02984668 37.50710518 4.99652147 54.125 14.5 C55.094375 15.04269531 56.06375 15.58539063 57.0625 16.14453125 C66.69426502 21.89839088 85.53535508 34.26138101 88.72338867 45.63476562 C88.85592041 46.25029297 88.98845215 46.86582031 89.125 47.5 C87.23007812 47.70302734 87.23007812 47.70302734 85.296875 47.91015625 C52.89111835 51.68928912 23.68730296 61.73101108 -5.25976562 76.30419922 C-7.51063914 77.33339811 -9.43014909 78.14866637 -11.875 78.5 C-13.8203125 77.26953125 -13.8203125 77.26953125 -16 75.3125 C-35.00548695 59.37776858 -59.27068023 44.36810659 -82.875 36.5 C-76.97207701 22.45293727 -56.36717243 12.97276482 -42.94873047 7.32080078 C-37.71797585 5.25042204 -32.36507553 3.72405657 -26.875 2.5 C-26.11525879 2.32629883 -25.35551758 2.15259766 -24.57275391 1.97363281 C-16.42136667 0.28106145 -8.29565295 0.01608074 0 0 Z " fill="#5789EF" transform="translate(633.875,309.5)"/>
<path d="M0 0 C1.95123024 0.0001133 1.95123024 0.0001133 3.94187927 0.00022888 C5.34154296 0.00533398 6.74120625 0.01054995 8.14086914 0.01586914 C9.58818004 0.01773673 11.03549158 0.01915902 12.48280334 0.02015686 C16.27212299 0.02395522 20.06140365 0.03376229 23.85070801 0.04486084 C27.72541781 0.05513292 31.60013399 0.05966685 35.47485352 0.06469727 C43.06276182 0.07538723 50.65063812 0.09243105 58.23852539 0.11352539 C57.50261678 6.21226226 56.13127158 12.08736942 54.67602539 18.05102539 C54.44206055 19.02104492 54.2080957 19.99106445 53.96704102 20.99047852 C53.3937501 23.3655409 52.81751051 25.73984592 52.23852539 28.11352539 C51.58421539 28.12161224 50.9299054 28.1296991 50.25576782 28.13803101 C43.4091743 28.22448445 36.5628568 28.32400316 29.71655273 28.4309082 C27.16581886 28.46905123 24.61503389 28.50392896 22.06420898 28.53540039 C18.38515025 28.58137067 14.70643888 28.6393118 11.02758789 28.69946289 C9.89801666 28.7110141 8.76844543 28.72256531 7.60464478 28.73446655 C-9.26272921 29.04468523 -24.68336737 33.71303114 -37.44897461 45.17602539 C-48.04946548 56.56836016 -52.33357107 70.83209821 -52.32226562 86.1105957 C-51.89595957 97.88899951 -47.53942285 108.89158675 -40.27709961 118.13305664 C-38.76147461 120.11352539 -38.76147461 120.11352539 -37.80834961 122.25024414 C-36.46180891 124.64688561 -35.25673271 125.02129498 -32.76147461 126.11352539 C-31.04532035 127.22655834 -29.33766143 128.3527476 -27.63647461 129.48852539 C-23.15436792 132.38234192 -18.78015839 134.51331881 -13.75756836 136.28930664 C-11.76147461 137.11352539 -11.76147461 137.11352539 -9.76147461 139.11352539 C-30.00434788 139.73320518 -45.36380183 136.98559381 -61.24975586 123.54711914 C-65.1023314 119.81437488 -67.93159625 115.64277091 -70.76147461 111.11352539 C-71.42791992 110.16735352 -72.09436523 109.22118164 -72.78100586 108.24633789 C-81.29279451 94.7819306 -81.66872054 77.62807847 -79.13256836 62.31665039 C-78.23723481 59.08863169 -77.12908212 56.17143431 -75.76147461 53.11352539 C-75.34285156 52.16123047 -75.34285156 52.16123047 -74.91577148 51.18969727 C-70.92757552 42.25647701 -66.4234987 34.36337514 -59.76147461 27.11352539 C-59.12467773 26.4084082 -58.48788086 25.70329102 -57.83178711 24.97680664 C-43.03250305 9.37515175 -21.50140122 -0.04191306 0 0 Z " fill="#1A2439" transform="translate(411.761474609375,969.886474609375)"/>
<path d="M0 0 C5.54743493 0.50097981 10.16214909 1.54638073 15.25 3.875 C15.92546875 4.17817139 16.6009375 4.48134277 17.296875 4.79370117 C35.65284809 13.23387404 55.62027813 23.70566414 71 37 C71 37.66 71 38.32 71 39 C68.96799472 40.55675367 66.92969193 42.00476179 64.8125 43.4375 C47.20193228 55.69135187 30.91850574 70.70178951 17 87 C16.17628906 87.93457031 15.35257813 88.86914062 14.50390625 89.83203125 C8.63561707 96.55162372 3.40858188 103.49642865 -1.47167969 110.97070312 C-2.60121402 112.67886136 -3.79488615 114.34429684 -5 116 C-5.66 116 -6.32 116 -7 116 C-20.84325975 89.05178769 -22.96055238 56.82972483 -14 28 C-11.78021319 21.75500763 -9.05931555 15.86812474 -5.875 10.0625 C-5.52824219 9.41732422 -5.18148437 8.77214844 -4.82421875 8.10742188 C-3.31534437 5.31802767 -1.76041007 2.6406151 0 0 Z " fill="#A5B5EC" transform="translate(539,359)"/>
<path d="M0 0 C0.13462646 0.92558716 0.13462646 0.92558716 0.27197266 1.86987305 C3.47683833 23.46380296 8.31731236 43.36481271 18 63 C18.49242187 64.00160156 18.98484375 65.00320313 19.4921875 66.03515625 C25.85885677 78.2469315 33.9458084 89.30111983 42.79711914 99.80932617 C43.32942139 100.44459229 43.86172363 101.0798584 44.41015625 101.734375 C44.88590088 102.29350586 45.36164551 102.85263672 45.85180664 103.42871094 C47 105 47 105 48 108 C11.7917757 108.77486872 -15.94084292 101.66157368 -42.75976562 76.33837891 C-51.30809494 67.94825897 -51.30809494 67.94825897 -53.0390625 63.07421875 C-52.98640496 58.93007017 -51.28725545 56.49370803 -48.9375 53.25 C-48.4943042 52.61384766 -48.0511084 51.97769531 -47.59448242 51.32226562 C-43.80095698 45.95085633 -39.82080196 40.71224698 -35.8125 35.5 C-35.24329834 34.75911133 -34.67409668 34.01822266 -34.08764648 33.25488281 C-30.80188485 29.06085801 -27.35027433 25.22188105 -23.53344727 21.50537109 C-21.76975197 19.77396762 -20.15446491 17.95218303 -18.5625 16.0625 C-4.68325243 0 -4.68325243 0 0 0 Z " fill="#A9B7EB" transform="translate(596,428)"/>
<path d="M0 0 C1.31991943 0.00265869 2.63983887 0.00531738 3.99975586 0.00805664 C25.98344564 0.1153074 25.98344564 0.1153074 35.1875 2.125 C31.64659788 21.3607115 12.05968009 40.7214756 -2.99829102 51.4309082 C-13.62484936 58.60763587 -25.48572215 63.72657134 -37.8125 67.125 C-49.48167418 55.90981386 -59.27811813 44.4777866 -67.8125 30.6875 C-68.28196045 29.92985352 -68.7514209 29.17220703 -69.23510742 28.39160156 C-71.64687244 24.39402452 -73.54765994 20.6597391 -74.8125 16.125 C-50.5358017 4.66477091 -26.82704361 -0.09698367 0 0 Z " fill="#2E54BC" transform="translate(700.8125,464.875)"/>
<path d="M0 0 C1.01191406 -0.01160156 2.02382813 -0.02320313 3.06640625 -0.03515625 C13.08220063 0.00331671 21.72720552 1.94725336 30.1875 7.375 C31.27160156 8.055625 32.35570312 8.73625 33.47265625 9.4375 C36.125 11.375 36.125 11.375 38.125 14.375 C36.75000127 16.07951912 35.34920707 17.76325686 33.9375 19.4375 C33.16019531 20.37722656 32.38289063 21.31695313 31.58203125 22.28515625 C29.125 24.375 29.125 24.375 26.56640625 24.3359375 C23.49944779 23.12878265 21.06871516 21.51128573 18.3828125 19.62890625 C10.371175 15.17953664 0.18298493 15.20110476 -8.63671875 16.91015625 C-18.25011362 19.8970005 -25.40118857 26.4755624 -30.3125 35.1875 C-33.63523413 43.61092249 -33.67421711 55.0341256 -30.546875 63.5078125 C-27.71029317 69.97625603 -24.06569468 75.77958632 -17.875 79.375 C-17.19308594 79.78234375 -16.51117188 80.1896875 -15.80859375 80.609375 C-5.86792136 85.52084088 7.76569378 84.65544697 18.125 81.375 C20.9584743 79.86037267 20.9584743 79.86037267 23.125 78.375 C23.785 78.375 24.445 78.375 25.125 78.375 C25.125 72.765 25.125 67.155 25.125 61.375 C17.535 61.375 9.945 61.375 2.125 61.375 C2.125 56.755 2.125 52.135 2.125 47.375 C14.995 47.375 27.865 47.375 41.125 47.375 C41.351875 53.665625 41.57875 59.95625 41.8125 66.4375 C41.91264404 68.40984619 42.01278809 70.38219238 42.1159668 72.41430664 C42.48402815 84.74575315 42.48402815 84.74575315 38.86694336 89.08203125 C36.00877824 90.9407782 33.32275018 92.20912223 30.125 93.375 C28.88925718 93.95558927 27.6535665 94.53628956 26.41796875 95.1171875 C25.39316406 95.49101563 24.36835938 95.86484375 23.3125 96.25 C22.27480469 96.63929688 21.23710937 97.02859375 20.16796875 97.4296875 C5.65169978 101.93923447 -12.23500187 101.11856072 -25.875 94.375 C-29.20372633 92.32317894 -32.02905759 90.04705591 -34.875 87.375 C-35.49761719 86.85292969 -36.12023437 86.33085938 -36.76171875 85.79296875 C-42.18704046 80.95607673 -44.98035164 74.95293156 -47.875 68.375 C-48.42220703 67.14136719 -48.42220703 67.14136719 -48.98046875 65.8828125 C-52.73892039 55.34601794 -52.23788745 41.50918118 -48.203125 31.15234375 C-41.35210496 16.82565184 -31.7010032 7.37556037 -16.734375 1.6953125 C-11.18314291 -0.06860866 -5.78104458 -0.06577674 0 0 Z " fill="#1A2439" transform="translate(305.875,696.625)"/>
<path d="M0 0 C6.39496886 4.45451075 9.72811396 8.98757651 11.58319092 16.65380859 C12.3485777 20.96212138 12.24307101 25.26196851 12.1953125 29.625 C12.1924826 30.61250244 12.18965271 31.60000488 12.18673706 32.61743164 C12.1756182 35.74508215 12.15052916 38.87243728 12.125 42 C12.11495948 44.13150626 12.10583551 46.26301704 12.09765625 48.39453125 C12.07570607 53.5964665 12.04123391 58.79818331 12 64 C7.05 64 2.1 64 -3 64 C-3.495 60.535 -3.495 60.535 -4 57 C-4.40089844 57.39832031 -4.80179687 57.79664063 -5.21484375 58.20703125 C-12.79868469 65.27496464 -20.29309393 66.66503384 -30.5546875 66.41015625 C-36.56574955 65.69455362 -41.49185424 63.65329308 -45.6875 59.21484375 C-50.4699495 52.81560024 -50.71126491 46.72373585 -50 39 C-48.30806907 33.6341619 -44.54158972 30.1441775 -40 27 C-32.67439595 23.48371005 -25.39608533 22.83322351 -17.375 22.875 C-16.62476563 22.87113281 -15.87453125 22.86726562 -15.1015625 22.86328125 C-11.56366956 22.86955411 -8.40236592 23.04748888 -5 24 C-4.70657763 17.70118654 -4.70657763 17.70118654 -7 12 C-11.54666408 10.05435546 -15.85934446 9.61505013 -20.75 9.625 C-21.45157227 9.62443604 -22.15314453 9.62387207 -22.87597656 9.62329102 C-28.08210387 9.73279921 -32.26672366 10.72625158 -36.984375 13.02734375 C-38.98105071 13.99085587 -40.83813587 14.53743898 -43 15 C-43.50559908 13.56445975 -44.0042749 12.1264798 -44.5 10.6875 C-44.7784375 9.88699219 -45.056875 9.08648438 -45.34375 8.26171875 C-46 6 -46 6 -46 3 C-43.75157909 2.01706733 -41.50140453 1.03855534 -39.25 0.0625 C-38.61578125 -0.21529297 -37.9815625 -0.49308594 -37.328125 -0.77929688 C-26.11540506 -5.62646226 -10.7311171 -6.65575011 0 0 Z " fill="#1B253A" transform="translate(464,730)"/>
<path d="M0 0 C7.45085108 3.82736504 12.24005449 9.81287695 15.140625 17.61328125 C16.140625 21.61328125 16.140625 21.61328125 16.140625 35.61328125 C-0.689375 35.61328125 -17.519375 35.61328125 -34.859375 35.61328125 C-31.26193176 45.4382741 -31.26193176 45.4382741 -24.1875 51.71484375 C-20.86431665 52.99728028 -17.62346359 52.99599203 -14.109375 52.98828125 C-13.03683472 52.9869519 -13.03683472 52.9869519 -11.94262695 52.9855957 C-5.55150089 52.8420813 -0.83701727 51.70914257 3.71484375 46.9765625 C5.140625 45.61328125 5.140625 45.61328125 7.140625 45.61328125 C8.8671875 47.36328125 8.8671875 47.36328125 10.765625 49.61328125 C11.39726563 50.35578125 12.02890625 51.09828125 12.6796875 51.86328125 C13.40285156 52.72953125 13.40285156 52.72953125 14.140625 53.61328125 C12.71909914 57.07731532 11.13326763 58.63899382 8.015625 60.67578125 C7.29117188 61.16175781 6.56671875 61.64773438 5.8203125 62.1484375 C-0.84963676 65.79454679 -6.63886661 67.14720786 -14.234375 67.05078125 C-15.48891479 67.03942139 -15.48891479 67.03942139 -16.76879883 67.02783203 C-23.13391564 66.85809558 -28.34206177 65.96121612 -33.859375 62.61328125 C-34.92865234 61.97712891 -34.92865234 61.97712891 -36.01953125 61.328125 C-42.61505414 56.90234422 -47.54265006 50.23134075 -49.859375 42.61328125 C-51.39697011 29.34070053 -50.44438138 18.46031272 -42.32421875 7.55078125 C-31.00103727 -5.35820206 -15.11248019 -6.01449604 0 0 Z " fill="#1A2439" transform="translate(878.859375,729.38671875)"/>
<path d="M0 0 C7.26 0 14.52 0 22 0 C22.44249582 24.18977133 18.94699678 43.17698876 1.8671875 61.2578125 C-11.84527169 74.60822656 -28.95604001 80.31507481 -47.8125 80.375 C-63.6462828 80.15477264 -76.64072696 76.69367009 -90 68 C-86.23817665 66.74605888 -83.91867574 67.41081465 -80 68 C-57.99025124 69.58939293 -36.43008039 64.21649353 -19.30078125 49.71484375 C-13.36024054 44.11173286 -9.36615424 38.41355399 -6 31 C-5.525625 30.02546875 -5.05125 29.0509375 -4.5625 28.046875 C-0.40354234 18.64195938 -0.23294145 10.17177657 0 0 Z " fill="#1A253A" transform="translate(459,1048)"/>
<path d="M0 0 C5.28 0 10.56 0 16 0 C20.91830127 9.2347454 24.57605543 18.87218154 28.3125 28.625 C28.96374009 30.31397667 29.61542927 32.00278026 30.26757812 33.69140625 C31.85023582 37.79229398 33.42680052 41.89547509 35 46 C37.17877833 41.16523156 39.32007567 36.34048846 41.1875 31.375 C43.68168863 24.82286812 46.20701702 18.28336341 48.75 11.75 C49.35171021 10.19418213 49.35171021 10.19418213 49.96557617 8.60693359 C50.34302979 7.63836426 50.7204834 6.66979492 51.109375 5.671875 C51.61936035 4.35848145 51.61936035 4.35848145 52.13964844 3.01855469 C53 1 53 1 54 0 C56.69654854 -0.07319621 59.36691458 -0.09242537 62.0625 -0.0625 C62.82111328 -0.05798828 63.57972656 -0.05347656 64.36132812 -0.04882812 C66.24091871 -0.0370068 68.12046899 -0.01907078 70 0 C67.88894502 6.67661579 65.38818779 13.13006233 62.69140625 19.58984375 C62.28341293 20.57441055 61.87541962 21.55897736 61.45506287 22.57337952 C60.16045616 25.69597195 58.86164688 28.81679413 57.5625 31.9375 C56.26779523 35.05499053 54.97397412 38.17284576 53.6806488 41.29090881 C52.87911977 43.22250349 52.07666167 45.15371303 51.27308655 47.0844574 C48.19487781 54.49017711 45.15708741 61.91053373 42.32421875 69.4140625 C38.75139091 78.7150654 35.56338969 86.50924569 26.8125 92 C20.3890143 93.68484871 13.41932086 93.89975128 7 92 C6.9227582 87.44273372 7.00703588 83.46442924 8 79 C8.74765625 78.97421875 9.4953125 78.9484375 10.265625 78.921875 C16.21566609 78.7023382 16.21566609 78.7023382 21.5 76.3125 C25.48530435 70.23896553 25.48530435 70.23896553 25.56420898 63.14428711 C24.32808477 58.44637325 22.14375168 54.09011139 20.125 49.6875 C19.12586791 47.46562369 18.12853081 45.24293951 17.1328125 43.01953125 C16.61750977 41.87178223 16.10220703 40.7240332 15.57128906 39.54150391 C12.97260085 33.68436109 10.48473446 27.78119108 8 21.875 C7.31574951 20.250177 7.31574951 20.250177 6.61767578 18.5925293 C5.77716925 16.59597253 4.93833245 14.59871161 4.1015625 12.60058594 C3.1563599 10.3691369 2.17722656 8.15716636 1.1875 5.9453125 C0 3 0 3 0 0 Z " fill="#1B253A" transform="translate(647,728)"/>
<path d="M0 0 C6.64636417 3.90473895 11.28873525 8.72903999 13.875 16.1015625 C14.3933291 20.0190386 14.34303211 23.87443773 14.265625 27.8203125 C14.25996521 28.91879517 14.25430542 30.01727783 14.24847412 31.14904785 C14.22620753 34.6336757 14.17602752 38.11724906 14.125 41.6015625 C14.10492252 43.97394341 14.08667394 46.34634055 14.0703125 48.71875 C14.0263743 54.51342284 13.95741272 60.30731431 13.875 66.1015625 C8.595 66.1015625 3.315 66.1015625 -2.125 66.1015625 C-2.1343457 64.73427002 -2.14369141 63.36697754 -2.15332031 61.95825195 C-2.19322903 56.8794715 -2.258991 51.80129624 -2.33251953 46.72290039 C-2.3607239 44.52603944 -2.38194107 42.32907711 -2.39599609 40.13208008 C-2.41743249 36.9716402 -2.4640878 33.81241854 -2.515625 30.65234375 C-2.51685364 29.67195633 -2.51808228 28.69156891 -2.51934814 27.68147278 C-2.61299881 23.30933077 -2.69092847 20.79415385 -5.05371094 17.02416992 C-8.94617674 13.41111379 -11.63014002 12.73497653 -17.04296875 12.92578125 C-22.12196612 13.35458966 -25.74765189 14.30444476 -29.28564453 18.03344727 C-33.04807989 22.61255284 -32.98472844 26.88998949 -32.9296875 32.62890625 C-32.94339386 33.61782364 -32.95710022 34.60674103 -32.97122192 35.62562561 C-33.00841713 38.76390511 -33.00481397 41.90059448 -33 45.0390625 C-33.01813404 47.17515483 -33.03893894 49.31122626 -33.0625 51.44726562 C-33.11425323 56.66562981 -33.12943732 61.88295582 -33.125 67.1015625 C-38.405 67.1015625 -43.685 67.1015625 -49.125 67.1015625 C-49.125 44.9915625 -49.125 22.8815625 -49.125 0.1015625 C-44.175 0.1015625 -39.225 0.1015625 -34.125 0.1015625 C-34.125 3.0715625 -34.125 6.0415625 -34.125 9.1015625 C-33.465 9.1015625 -32.805 9.1015625 -32.125 9.1015625 C-31.88652344 8.50730469 -31.64804687 7.91304687 -31.40234375 7.30078125 C-29.85398909 4.63495962 -28.27384853 3.56609793 -25.6875 1.9140625 C-24.90503906 1.40488281 -24.12257813 0.89570312 -23.31640625 0.37109375 C-16.62343318 -3.50629706 -6.98727681 -3.11516091 0 0 Z " fill="#1C263B" transform="translate(957.125,727.8984375)"/>
<path d="M0 0 C5.28 0 10.56 0 16 0 C16 26.73 16 53.46 16 81 C30.52 81 45.04 81 60 81 C60 85.62 60 90.24 60 95 C40.2 95 20.4 95 0 95 C0 63.65 0 32.3 0 0 Z " fill="#172137" transform="translate(761,699)"/>
<path d="M0 0 C0.96484375 1.9375 0.96484375 1.9375 1 4 C-0.03680745 6.56336313 -1.50908331 8.65067673 -3 11 C-6.44315207 10.58010341 -9.0012943 9.99935285 -12.125 8.4375 C-17.07115315 6.19126043 -22.69400773 6.23665556 -28 7 C-30.36776677 8.20678202 -30.36776677 8.20678202 -32 10 C-32.31900332 13.12623255 -32.41441874 15.17116253 -31 18 C-26.11534903 20.4851733 -21.23961801 22.26774003 -15.99902344 23.81103516 C-1.99579331 27.94118326 -1.99579331 27.94118326 2.9375 34.625 C4.63442422 40.01522988 5.10930348 45.64702056 3.30859375 51.08984375 C-0.01243154 57.44008876 -5.14556737 61.00250188 -11.75244141 63.38037109 C-15.59808814 64.44057655 -19.3439069 64.48733347 -23.3125 64.4375 C-24.14483154 64.43137695 -24.97716309 64.42525391 -25.8347168 64.41894531 C-35.09490422 64.18466987 -42.6109492 61.59171412 -50 56 C-49.39305845 52.84669446 -48.3583335 50.81111133 -46.4375 48.25 C-45.98246094 47.63640625 -45.52742187 47.0228125 -45.05859375 46.390625 C-44.53458984 45.70226562 -44.53458984 45.70226562 -44 45 C-42.96939453 45.52400391 -42.96939453 45.52400391 -41.91796875 46.05859375 C-41.01691406 46.51363281 -40.11585938 46.96867188 -39.1875 47.4375 C-38.29417969 47.88996094 -37.40085937 48.34242188 -36.48046875 48.80859375 C-32.20255314 50.86334062 -28.84293202 51.19015308 -24.125 51.25 C-22.91070313 51.27578125 -21.69640625 51.3015625 -20.4453125 51.328125 C-16.74352966 50.97557425 -14.85619078 50.36133287 -12 48 C-11.58274322 44.37400578 -11.58274322 44.37400578 -12 41 C-16.38137241 38.89045032 -20.7158238 37.0537701 -25.359375 35.609375 C-26.53234131 35.24126709 -26.53234131 35.24126709 -27.72900391 34.86572266 C-29.29446579 34.38175981 -30.86441566 33.91202208 -32.43896484 33.45849609 C-39.35537873 31.31068092 -44.29415016 27.97148037 -47.9375 21.625 C-49.50708535 16.26994411 -49.81119952 12.17743028 -47.8125 6.8125 C-44.73815547 2.04196538 -41.11765858 -1.50358118 -36 -4 C-24.18445896 -6.46736298 -10.51324268 -6.65838703 0 0 Z " fill="#1A243A" transform="translate(1032,732)"/>
<path d="M0 0 C0 6.6 0 13.2 0 20 C6.6 20 13.2 20 20 20 C20 24.29 20 28.58 20 33 C13.73 33 7.46 33 1 33 C1.07395738 38.21527032 1.15674207 43.428811 1.26245117 48.64331055 C1.29571464 50.41730812 1.32374218 52.1914119 1.34643555 53.96557617 C1.37995602 56.51527176 1.43226865 59.06399292 1.48828125 61.61328125 C1.49467117 62.40712723 1.5010611 63.20097321 1.50764465 64.01887512 C1.59932324 68.23812957 1.59932324 68.23812957 3.30859375 72.00585938 C6.21792898 73.71584971 9.41948093 73.3065035 12.6875 73.1875 C13.38939453 73.17396484 14.09128906 73.16042969 14.81445312 73.14648438 C16.54329829 73.11120182 18.27174765 73.05739583 20 73 C20.96070434 75.88211302 21.10581883 77.69850044 21.0625 80.6875 C21.05347656 81.49574219 21.04445313 82.30398438 21.03515625 83.13671875 C21.02355469 83.75160156 21.01195312 84.36648438 21 85 C14.14624124 89.01195635 6.7533055 88.89783949 -1 88 C-6.23136038 86.09697519 -10.0225711 82.69517635 -13 78 C-15.15920589 72.86571615 -15.26394483 68.34882522 -15.1953125 62.8828125 C-15.1924826 62.02565643 -15.18965271 61.16850037 -15.18673706 60.28536987 C-15.17559999 57.56510068 -15.1505076 54.84516859 -15.125 52.125 C-15.11496182 50.27344228 -15.10583744 48.42187936 -15.09765625 46.5703125 C-15.07568188 42.0467464 -15.041197 37.52343023 -15 33 C-18.63 33 -22.26 33 -26 33 C-26 28.71 -26 24.42 -26 20 C-22.37 20 -18.74 20 -15 20 C-15 13.73 -15 7.46 -15 1 C-9 0 -9 0 0 0 Z " fill="#1C273C" transform="translate(618,708)"/>
<path d="M0 0 C5.28 0 10.56 0 16 0 C19.2517017 6.02166981 21.5344808 12.16163229 23.78125 18.62109375 C24.75538938 21.32183274 25.79429675 23.89898694 27 26.5 C28.78837089 30.38457611 30.29654494 34.35541666 31.75 38.375 C32.17796875 39.55835938 32.6059375 40.74171875 33.046875 41.9609375 C34 45 34 45 34 48 C34.66 48 35.32 48 36 48 C36.10699219 47.33484375 36.21398437 46.6696875 36.32421875 45.984375 C37.16393247 42.27604388 38.45850972 38.79341253 39.8125 35.25 C40.08384766 34.53191162 40.35519531 33.81382324 40.63476562 33.07397461 C41.9907183 29.51862483 43.3931665 26.01346308 45 22.5625 C47.38657708 17.41675786 49.1499524 12.03584643 50.98242188 6.67407227 C52.90050064 1.09949936 52.90050064 1.09949936 54 0 C56.69654854 -0.07319621 59.36691458 -0.09242537 62.0625 -0.0625 C62.82111328 -0.05798828 63.57972656 -0.05347656 64.36132812 -0.04882812 C66.24091871 -0.0370068 68.12046899 -0.01907078 70 0 C68.58062111 5.36680574 66.71627836 10.38763437 64.5625 15.5 C64.26279297 16.22058594 63.96308594 16.94117188 63.65429688 17.68359375 C62.30536046 20.91987069 60.93689343 24.14662496 59.55078125 27.3671875 C57.52986174 32.10133144 55.5743499 36.86101293 53.625 41.625 C53.22869385 42.59324707 52.8323877 43.56149414 52.42407227 44.55908203 C49.52196646 51.67158597 46.70035136 58.80810944 44 66 C41.22754986 66.13487595 38.46162912 66.23400807 35.6875 66.3125 C34.90181641 66.35439453 34.11613281 66.39628906 33.30664062 66.43945312 C31.10515107 66.48629333 29.15425923 66.46033631 27 66 C25.078125 63.8125 25.078125 63.8125 24 61 C23.49146484 59.70642578 23.49146484 59.70642578 22.97265625 58.38671875 C22.67230469 57.49597656 22.37195313 56.60523438 22.0625 55.6875 C20.89848479 52.37622945 19.69765043 49.23046715 18.0625 46.125 C15.74354572 41.68637658 14.05051567 37.04391311 12.28515625 32.36328125 C9.88991919 26.0948949 7.25429048 19.92432893 4.609375 13.7578125 C3.93648438 12.17613281 3.93648438 12.17613281 3.25 10.5625 C2.84265625 9.61503906 2.4353125 8.66757812 2.015625 7.69140625 C1 5 1 5 0 0 Z " fill="#1B253A" transform="translate(483,728)"/>
<path d="M0 0 C0 4.95 0 9.9 0 15 C-3.4959375 15.309375 -3.4959375 15.309375 -7.0625 15.625 C-12.49273055 16.26789271 -16.62507515 17.18353764 -20.703125 20.9765625 C-24.51500166 26.92400861 -25.45272968 32.76796331 -25.51171875 39.65625 C-25.52966995 40.44398804 -25.54762115 41.23172607 -25.56611633 42.04333496 C-25.61976305 44.52883749 -25.65396616 47.0141532 -25.6875 49.5 C-25.72071357 51.19794242 -25.7552069 52.89586032 -25.79101562 54.59375 C-25.87784364 58.72918671 -25.93829756 62.86380906 -26 67 C-31.28 67 -36.56 67 -42 67 C-42 45.22 -42 23.44 -42 1 C-37.05 1 -32.1 1 -27 1 C-26.67 4.96 -26.34 8.92 -26 13 C-25.0925 11.741875 -24.185 10.48375 -23.25 9.1875 C-16.9063571 0.39290417 -10.3217943 -0.24871793 0 0 Z " fill="#1A253A" transform="translate(407,727)"/>
<path d="M0 0 C1.9570878 1.19179073 3.38183886 2.47677212 4.91796875 4.16796875 C3.71415427 6.66158446 2.46368153 8.84939958 0.91796875 11.16796875 C-1.90513385 10.05583742 -4.61422072 8.90187402 -7.33203125 7.54296875 C-13.33920908 5.34033688 -18.48691221 5.16858037 -24.39453125 7.79296875 C-29.10826062 10.43153041 -31.39025752 14.09264755 -33.08203125 19.16796875 C-33.78732838 26.32500029 -33.40045795 32.24236059 -29.08203125 38.16796875 C-23.73595828 43.3803899 -18.95983903 43.38393467 -11.7890625 43.3359375 C-8.63104903 43.13998573 -5.98345811 42.42263983 -3.08203125 41.16796875 C-2.58703125 36.21796875 -2.58703125 36.21796875 -2.08203125 31.16796875 C-6.37203125 31.16796875 -10.66203125 31.16796875 -15.08203125 31.16796875 C-15.08203125 28.52796875 -15.08203125 25.88796875 -15.08203125 23.16796875 C-7.82203125 23.16796875 -0.56203125 23.16796875 6.91796875 23.16796875 C6.91796875 30.75796875 6.91796875 38.34796875 6.91796875 46.16796875 C-3.79973882 51.52682254 -12.92534275 55.6283532 -24.90234375 52.41015625 C-32.76138498 49.43075853 -37.6580065 45.24640834 -42.08203125 38.16796875 C-42.45070313 37.60335938 -42.819375 37.03875 -43.19921875 36.45703125 C-45.69900408 29.97528699 -45.04520258 20.71602316 -43.2421875 14.07421875 C-39.96598361 6.92613753 -34.76206393 2.04096029 -27.8125 -1.49609375 C-18.90972956 -4.68431102 -8.56433558 -3.8473177 0 0 Z " fill="#1E283E" transform="translate(562.08203125,1037.83203125)"/>
<path d="M0 0 C5.28 0 10.56 0 16 0 C16 21.78 16 43.56 16 66 C10.72 66 5.44 66 0 66 C0 44.22 0 22.44 0 0 Z " fill="#1D273C" transform="translate(564,728)"/>
<path d="M0 0 C3.86557482 3.50537353 5.52568549 6.61022125 6.03515625 11.75170898 C6.11225961 15.50770762 6.0673275 19.24067028 5.96875 22.99609375 C5.95070313 24.29998047 5.93265625 25.60386719 5.9140625 26.94726562 C5.86710957 30.15180284 5.80144464 33.35481265 5.71875 36.55859375 C2.74875 36.55859375 -0.22125 36.55859375 -3.28125 36.55859375 C-3.61125 35.56859375 -3.94125 34.57859375 -4.28125 33.55859375 C-5.415625 34.21859375 -6.55 34.87859375 -7.71875 35.55859375 C-12.28609367 37.8220561 -16.24715212 38.48911092 -21.28125 37.55859375 C-25.37990204 35.47200726 -27.56952358 33.79531027 -29.28125 29.55859375 C-29.95934931 25.15094824 -29.86294793 21.62891794 -27.71875 17.68359375 C-22.0208455 12.71618983 -17.15999386 12.23109032 -9.83203125 12.35546875 C-7.52878208 12.53888216 -5.49468887 12.91581525 -3.28125 13.55859375 C-4.27782942 9.3964752 -4.27782942 9.3964752 -6.90625 6.18359375 C-13.82024202 4.36412217 -18.91858409 5.83173693 -25.28125 8.55859375 C-25.61125 5.91859375 -25.94125 3.27859375 -26.28125 0.55859375 C-17.67101727 -3.41535982 -8.68632097 -4.28601364 0 0 Z " fill="#1E293E" transform="translate(635.28125,1053.44140625)"/>
<path d="M0 0 C3.36399941 6.28921628 4.13997923 11.0798555 4.125 18.1875 C4.12886719 20.03408203 4.12886719 20.03408203 4.1328125 21.91796875 C4 25 4 25 3 27 C2.23969482 27.0093457 1.47938965 27.01869141 0.69604492 27.02832031 C-2.80741833 27.08258396 -6.30962552 27.16612065 -9.8125 27.25 C-11.00810547 27.26417969 -12.20371094 27.27835938 -13.43554688 27.29296875 C-20.50966613 27.48572404 -26.26693538 28.37664216 -32.79956055 31.15136719 C-35 32 -35 32 -38 32 C-38.77579378 28.68209626 -39.41935314 25.35744998 -40 22 C-40.15984375 21.18917969 -40.3196875 20.37835937 -40.484375 19.54296875 C-40.7754489 17.03031614 -40.82445893 15.39968213 -40 13 C-37.01213703 10.26771798 -33.65812425 8.67964578 -30 7 C-28.90558594 6.43152344 -28.90558594 6.43152344 -27.7890625 5.8515625 C-19.19771685 1.60379681 -9.56486029 -0.56263884 0 0 Z " fill="#4683F4" transform="translate(445,1033)"/>
<path d="M0 0 C4.8772041 2.7827596 7.13806195 6.3386239 9.625 11.3125 C9.625 14.2825 9.625 17.2525 9.625 20.3125 C0.055 20.3125 -9.515 20.3125 -19.375 20.3125 C-18.385 22.2925 -17.395 24.2725 -16.375 26.3125 C-16.375 26.9725 -16.375 27.6325 -16.375 28.3125 C-11.85588538 30.64494625 -7.3580628 31.08744286 -2.375 30.3125 C0.65190443 28.49659021 0.65190443 28.49659021 2.625 26.3125 C4.5625 27.0625 4.5625 27.0625 6.625 28.3125 C7.375 30.4375 7.375 30.4375 7.625 32.3125 C1.88114552 37.3806069 -3.30448478 38.80648984 -10.84765625 38.625 C-16.3278831 37.94738308 -20.56974071 35.51475519 -24.25 31.4375 C-28.16074187 25.68640901 -29.29387247 20.16333401 -28.375 13.3125 C-26.49278487 7.12485865 -22.69924034 2.88258227 -17.375 -0.6875 C-11.59787021 -2.61320993 -5.5650706 -2.58937619 0 0 Z " fill="#1D283D" transform="translate(864.375,1052.6875)"/>
<path d="M0 0 C4.40886479 2.78533012 8.59539195 6.02795728 12 10 C12 10.66 12 11.32 12 12 C11.09121094 12.14695312 10.18242187 12.29390625 9.24609375 12.4453125 C1.36178178 13.85235894 -5.73342686 15.7868328 -13.07446289 19.01806641 C-16.38409078 20.45806078 -18.29797684 21 -22 21 C-24.15625 19.6796875 -24.15625 19.6796875 -26.5 17.875 C-32.00413122 13.84137548 -37.83565496 10.89152267 -44 8 C-42.5371193 4.24527287 -40.69906775 2.8712786 -37.25 0.875 C-36.40953125 0.37742187 -35.5690625 -0.12015625 -34.703125 -0.6328125 C-23.75114812 -6.17210717 -10.82721449 -5.65652552 0 0 Z " fill="#598AEF" transform="translate(429,1016)"/>
<path d="M0 0 C3.3 0 6.6 0 10 0 C10.44653931 1.1281311 10.44653931 1.1281311 10.90209961 2.27905273 C12.24456006 5.66626842 13.59097474 9.05189828 14.9375 12.4375 C15.40607422 13.62150391 15.87464844 14.80550781 16.35742188 16.02539062 C16.80537109 17.15009766 17.25332031 18.27480469 17.71484375 19.43359375 C18.12855225 20.47572021 18.54226074 21.51784668 18.96850586 22.59155273 C19.78402023 24.90789285 19.78402023 24.90789285 21 26 C21.19634033 25.42556152 21.39268066 24.85112305 21.5949707 24.25927734 C22.4964936 21.62968104 23.40443967 19.00234558 24.3125 16.375 C24.62123047 15.47136719 24.92996094 14.56773438 25.24804688 13.63671875 C26.88995971 8.90109647 28.61781888 4.41253241 31 0 C33.97 0 36.94 0 40 0 C33.30186741 20.83863474 33.30186741 20.83863474 28.8125 29.4375 C27.39746578 32.21877416 26.4586048 34.55778925 25.5625 37.5 C23.74451347 43.17997954 21.23162492 48.12073691 16.625 52 C13.26937696 53.27833258 10.56132932 53.26877957 7 53 C6.34 52.67 5.68 52.34 5 52 C5 49.69 5 47.38 5 45 C6.11375 44.9175 7.2275 44.835 8.375 44.75 C11.96171965 44.39480335 11.96171965 44.39480335 13.4375 42.3125 C14.84963256 36.50706613 13.69619548 32.77881165 11.203125 27.546875 C9.89317588 24.77386583 8.72423325 21.96315845 7.5625 19.125 C5.47898744 14.07798199 3.24446906 9.11902663 0.91796875 4.1796875 C0 2 0 2 0 0 Z " fill="#212B41" transform="translate(734,1052)"/>
<path d="M0 0 C3.98167579 2.02703495 6.73532893 4.15213537 9 8 C9.34057617 11.29980469 9.34057617 11.29980469 9.29296875 15.171875 C9.28872391 15.8542926 9.28447906 16.53671021 9.28010559 17.23980713 C9.26336972 19.41028004 9.22572959 21.57980979 9.1875 23.75 C9.17244646 25.22524697 9.15875922 26.70050855 9.14648438 28.17578125 C9.11348377 31.78415844 9.06173767 35.3919871 9 39 C6.36 39 3.72 39 1 39 C0.98598145 37.84999512 0.98598145 37.84999512 0.97167969 36.67675781 C0.91797227 33.20051897 0.83432424 29.72562526 0.75 26.25 C0.73582031 25.0434375 0.72164062 23.836875 0.70703125 22.59375 C0.67480469 21.43359375 0.64257812 20.2734375 0.609375 19.078125 C0.58842773 18.00981445 0.56748047 16.94150391 0.54589844 15.84082031 C-0.12180735 12.36612238 -1.26079416 11.1700868 -4 9 C-5.97735077 8.37777707 -5.97735077 8.37777707 -8 8.5 C-8.99 8.48453125 -8.99 8.48453125 -10 8.46875 C-12.93670423 9.24881206 -14.09280677 10.66054858 -16 13 C-16.63828469 15.88873888 -16.63828469 15.88873888 -16.609375 19.078125 C-16.64160156 20.23828125 -16.67382812 21.3984375 -16.70703125 22.59375 C-16.72830078 24.40359375 -16.72830078 24.40359375 -16.75 26.25 C-16.77964844 27.47203125 -16.80929687 28.6940625 -16.83984375 29.953125 C-16.91052402 32.96881644 -16.96323175 35.9837355 -17 39 C-19.97 39 -22.94 39 -26 39 C-26 26.46 -26 13.92 -26 1 C-23.03 1 -20.06 1 -17 1 C-16.67 1.99 -16.34 2.98 -16 4 C-15.21625 3.34 -14.4325 2.68 -13.625 2 C-9.34739504 -0.8382213 -4.95907095 -0.806353 0 0 Z " fill="#202B40" transform="translate(907,1051)"/>
<path d="M0 0 C2.97 0 5.94 0 9 0 C9 15.18 9 30.36 9 46 C17.25 46 25.5 46 34 46 C34 48.64 34 51.28 34 54 C22.78 54 11.56 54 0 54 C0 36.18 0 18.36 0 0 Z " fill="#1A253B" transform="translate(798,1036)"/>
<path d="M0 0 C1.88154202 0.94580187 3.70113503 2.01309685 5.50390625 3.1015625 C4.84390625 5.0815625 4.18390625 7.0615625 3.50390625 9.1015625 C2.69953125 8.7715625 1.89515625 8.4415625 1.06640625 8.1015625 C-3.2341417 6.89439115 -7.06575556 6.92434897 -11.49609375 7.1015625 C-11.82609375 8.7515625 -12.15609375 10.4015625 -12.49609375 12.1015625 C-11.86703125 12.34390625 -11.23796875 12.58625 -10.58984375 12.8359375 C4.63434103 18.79721467 4.63434103 18.79721467 7.50390625 23.1015625 C8.04953876 26.16859154 8.02728419 29.0314383 7.50390625 32.1015625 C4.47541612 36.28800474 1.5247249 38.0595058 -3.49609375 39.1015625 C-11.03485886 39.9508168 -16.70426776 38.33851787 -23.49609375 35.1015625 C-22.50609375 32.1315625 -22.50609375 32.1315625 -21.49609375 29.1015625 C-17.49609375 29.1015625 -17.49609375 29.1015625 -15.53515625 30.08984375 C-13.1405687 31.27796286 -11.52742349 31.33792475 -8.87109375 31.2890625 C-7.70707031 31.27939453 -7.70707031 31.27939453 -6.51953125 31.26953125 C-4.42736695 31.22206883 -4.42736695 31.22206883 -2.49609375 30.1015625 C-2.50807272 27.66258991 -2.50807272 27.66258991 -3.49609375 25.1015625 C-6.27577461 23.57302375 -6.27577461 23.57302375 -9.68359375 22.6015625 C-19.11676985 19.25330329 -19.11676985 19.25330329 -22.49609375 15.1015625 C-23.18847594 11.13610087 -23.46639275 8.83288033 -21.5 5.32421875 C-16.07875253 -1.5832274 -8.16427371 -2.93862747 0 0 Z " fill="#222C41" transform="translate(945.49609375,1051.8984375)"/>
<path d="M0 0 C2.05078125 0.03255208 4.1015625 0.06510417 6.15234375 0.09765625 C6.15234375 3.72765625 6.15234375 7.35765625 6.15234375 11.09765625 C9.78234375 11.09765625 13.41234375 11.09765625 17.15234375 11.09765625 C17.15234375 13.40765625 17.15234375 15.71765625 17.15234375 18.09765625 C13.52234375 18.09765625 9.89234375 18.09765625 6.15234375 18.09765625 C6.29246512 21.74379321 6.43915773 25.38945414 6.58984375 29.03515625 C6.62916016 30.07607422 6.66847656 31.11699219 6.70898438 32.18945312 C6.77182617 33.67348633 6.77182617 33.67348633 6.8359375 35.1875 C6.87259521 36.10394287 6.90925293 37.02038574 6.94702148 37.96459961 C6.92238239 40.07972905 6.92238239 40.07972905 8.15234375 41.09765625 C9.67162413 41.16945589 11.19401857 41.18157632 12.71484375 41.16015625 C13.54113281 41.15113281 14.36742187 41.14210938 15.21875 41.1328125 C15.85683594 41.12121094 16.49492188 41.10960937 17.15234375 41.09765625 C17.48234375 43.73765625 17.81234375 46.37765625 18.15234375 49.09765625 C13.88230933 50.16516486 9.50527494 50.98634542 5.15234375 50.09765625 C1.27960628 47.74874062 -1.40398985 45.42865546 -2.84765625 41.09765625 C-2.92975417 39.32451774 -2.95511919 37.5484485 -2.9453125 35.7734375 C-2.94047852 34.23139648 -2.94047852 34.23139648 -2.93554688 32.65820312 C-2.92716797 31.58634766 -2.91878906 30.51449219 -2.91015625 29.41015625 C-2.90564453 28.32669922 -2.90113281 27.24324219 -2.89648438 26.12695312 C-2.88469368 23.4504654 -2.86823688 20.77408848 -2.84765625 18.09765625 C-4.82765625 18.09765625 -6.80765625 18.09765625 -8.84765625 18.09765625 C-8.84765625 15.78765625 -8.84765625 13.47765625 -8.84765625 11.09765625 C-6.86765625 11.09765625 -4.88765625 11.09765625 -2.84765625 11.09765625 C-2.85925781 10.38738281 -2.87085938 9.67710938 -2.8828125 8.9453125 C-2.89634766 7.56666016 -2.89634766 7.56666016 -2.91015625 6.16015625 C-2.92175781 5.24363281 -2.93335938 4.32710937 -2.9453125 3.3828125 C-2.82618856 0.59531224 -2.79215837 0.14757708 0 0 Z " fill="#202A3F" transform="translate(712.84765625,1040.90234375)"/>
<path d="M0 0 C2.97 0 5.94 0 9 0 C11.87792185 5.51810233 14.22767634 10.99375263 16.25 16.875 C16.518125 17.63296875 16.78625 18.3909375 17.0625 19.171875 C19 24.72735969 19 24.72735969 19 27 C19.66 27 20.32 27 21 27 C21.08121094 26.23429687 21.16242187 25.46859375 21.24609375 24.6796875 C22.28746447 19.59693508 24.17146485 14.94566992 26.0625 10.125 C26.43955078 9.15046875 26.81660156 8.1759375 27.20507812 7.171875 C28.13162559 4.77927141 29.06512486 2.38936197 30 0 C33.3 0 36.6 0 40 0 C38.59790484 4.36875114 36.98155261 8.59038635 35.21484375 12.82421875 C34.82311729 13.76633965 34.82311729 13.76633965 34.42347717 14.72749329 C33.59679848 16.7149939 32.7673471 18.70132046 31.9375 20.6875 C31.10445599 22.6845431 30.27202978 24.68183814 29.44081116 26.67964172 C28.68968087 28.48450288 27.93656694 30.28853812 27.18334961 32.0925293 C26.39194775 34.03699076 25.66387102 36.00838694 25 38 C21.7 38 18.4 38 15 38 C12.85925348 32.9115518 10.72312744 27.82119885 8.59130859 22.72900391 C7.86504579 20.99604661 7.13751082 19.26362191 6.40869141 17.53173828 C5.36287935 15.0459782 4.3216188 12.55835479 3.28125 10.0703125 C2.78908997 8.90461227 2.78908997 8.90461227 2.2869873 7.71536255 C0 2.22774341 0 2.22774341 0 0 Z " fill="#1E273D" transform="translate(644,1052)"/>
<path d="M0 0 C0.2475 1.216875 0.495 2.43375 0.75 3.6875 C3.3064181 14.91810919 6.20404939 26.34337412 14.71484375 34.6796875 C16 36 16 36 16 38 C5.02702811 38.7439303 -4.65184747 35.91398678 -13.09765625 28.78125 C-13.72542969 28.1934375 -14.35320312 27.605625 -15 27 C-15.76183594 26.3503125 -16.52367187 25.700625 -17.30859375 25.03125 C-19 23 -19 23 -19.00390625 21.078125 C-16.71059222 16.33087571 -5.75395914 0 0 0 Z " fill="#ACBBED" transform="translate(400,1051)"/>
<path d="M0 0 C8.5501789 2.52300361 17.15891919 6.13166029 24 12 C24 12.66 24 13.32 24 14 C22.43580927 15.17995045 20.82056709 16.2923793 19.1875 17.375 C14.61054827 20.61380025 10.77098838 24.04216439 7 28.1875 C6.31587036 28.93555908 6.31587036 28.93555908 5.61791992 29.69873047 C3.58297538 31.98904209 1.87028998 34.22008668 0.3125 36.86328125 C-0.3371875 37.92095703 -0.3371875 37.92095703 -1 39 C-1.66 39 -2.32 39 -3 39 C-6.63157042 28.01882276 -8.20877744 15.67457946 -2.9765625 4.890625 C-2.0390513 3.22837111 -1.02679034 1.6086382 0 0 Z " fill="#A6B6EC" transform="translate(380,1028)"/>
<path d="M0 0 C0.93457031 0.00322266 1.86914062 0.00644531 2.83203125 0.00976562 C3.80011719 0.01814453 4.76820313 0.02652344 5.765625 0.03515625 C6.74917969 0.03966797 7.73273438 0.04417969 8.74609375 0.04882812 C11.16933291 0.06059142 13.59244773 0.07702941 16.015625 0.09765625 C16.0631005 1.69241844 16.09692066 3.28759091 16.125 4.8828125 C16.14530273 5.77105713 16.16560547 6.65930176 16.18652344 7.57446289 C15.87448102 12.18154632 13.3797875 14.86550947 10.078125 17.84765625 C4.79127831 21.05180576 0.13450725 21.82079688 -5.984375 21.09765625 C-9.64581029 19.50572787 -12.14827591 17.67321764 -13.984375 14.09765625 C-14.6242493 9.05864613 -14.84974157 7.22744038 -11.734375 3.16015625 C-7.81295518 0.21909139 -4.82166398 -0.02940039 0 0 Z " fill="#F5F5F6" transform="translate(443.984375,763.90234375)"/>
<path d="M0 0 C-0.75000115 6.66667686 -5.34150197 10.53224363 -10 15 C-13.95096663 18.0948069 -17.86927376 20.73749773 -23 21 C-28.2401784 16.94056944 -32.10718585 10.90616223 -35 5 C-35 4.34 -35 3.68 -35 3 C-23.25624401 -0.41636538 -12.22466968 -2.78967416 0 0 Z " fill="#2B4DB2" transform="translate(445,1066)"/>
<path d="M0 0 C3.99364885 2.24053134 6.31775551 4.51948578 8.8125 8.375 C9.3075 11.84 9.3075 11.84 9.8125 15.375 C-1.7375 15.375 -13.2875 15.375 -25.1875 15.375 C-24.14704886 8.09184201 -23.30306437 6.0113546 -18.1875 1.375 C-12.26948098 -2.61323021 -6.38505313 -2.87387514 0 0 Z " fill="#F5F5F6" transform="translate(870.1875,739.625)"/>
<path d="M0 0 C2.64 0 5.28 0 8 0 C8 2.31 8 4.62 8 7 C8.66 7 9.32 7 10 7 C10.2475 6.401875 10.495 5.80375 10.75 5.1875 C12.2542674 2.55503205 13.32507908 1.4459032 16 0 C19.75 -0.1875 19.75 -0.1875 23 0 C23 2.64 23 5.28 23 8 C22.39671875 8.08636719 21.7934375 8.17273437 21.171875 8.26171875 C20.37265625 8.40222656 19.5734375 8.54273438 18.75 8.6875 C17.96109375 8.81511719 17.1721875 8.94273438 16.359375 9.07421875 C12.85360291 10.449828 11.84374102 11.67468138 10 15 C9.3781496 18.93376572 9.30345135 22.83523379 9.25 26.8125 C9.22035156 27.88693359 9.19070313 28.96136719 9.16015625 30.06835938 C9.08965079 32.71231427 9.03685857 35.3553973 9 38 C6.03 38 3.06 38 0 38 C0 25.46 0 12.92 0 0 Z " fill="#1B263B" transform="translate(579,1052)"/>
<path d="M0 0 C2.97 0 5.94 0 9 0 C9 12.54 9 25.08 9 38 C6.03 38 3.06 38 0 38 C0 25.46 0 12.92 0 0 Z " fill="#222C42" transform="translate(689,1052)"/>
<path d="M0 0 C3.99062431 2.48472834 5.68655935 3.96748964 7.0625 8.5 C6.99256618 12.41629414 6.48078416 14.00595015 4 17 C0.57840405 19.56619697 -2.84844133 19.50984054 -7 19 C-10.07858499 16.96944394 -11.645391 15.4855968 -12.515625 11.83984375 C-12.75643284 8.56157336 -12.73366826 6.08422647 -10.85546875 3.30859375 C-7.42328249 0.12997271 -4.53121574 -0.94400328 0 0 Z " fill="#1D263B" transform="translate(575,697)"/>
<path d="M0 0 C1.09570312 0.00902344 2.19140625 0.01804687 3.3203125 0.02734375 C4.16335938 0.03894531 5.00640625 0.05054688 5.875 0.0625 C6.36565421 6.44100467 6.36565421 6.44100467 4 9.4375 C0.1660535 12.36934144 -3.39511608 12.6151003 -8.125 12.0625 C-9.115 11.4025 -10.105 10.7425 -11.125 10.0625 C-11.53827822 6.82515393 -11.76523105 4.90644094 -9.75 2.25 C-6.42691173 -0.17841066 -4.07319131 -0.04333182 0 0 Z " fill="#F0F0F2" transform="translate(626.125,1071.9375)"/>
<path d="M0 0 C1.24716797 0.01353516 2.49433594 0.02707031 3.77929688 0.04101562 C6.83248967 0.0761098 9.8847599 0.12527733 12.9375 0.1875 C12.9375 0.5175 12.9375 0.8475 12.9375 1.1875 C11.2875 1.5175 9.6375 1.8475 7.9375 2.1875 C7.9375 2.8475 7.9375 3.5075 7.9375 4.1875 C8.5975 4.1875 9.2575 4.1875 9.9375 4.1875 C9.9375 4.8475 9.9375 5.5075 9.9375 6.1875 C8.70515625 6.16429687 7.4728125 6.14109375 6.203125 6.1171875 C-2.38099698 6.00781351 -10.48391773 6.03079547 -18.91015625 7.9453125 C-19.62042969 8.02523438 -20.33070313 8.10515625 -21.0625 8.1875 C-21.7225 7.5275 -22.3825 6.8675 -23.0625 6.1875 C-23.0625 5.1975 -23.0625 4.2075 -23.0625 3.1875 C-15.25347466 -0.02203469 -8.37805324 -0.17370764 0 0 Z " fill="#E9EFF9" transform="translate(435.0625,1059.8125)"/>
<path d="M0 0 C3.40740054 0.94650015 3.92628784 1.8736363 5.75 5 C7 8 7 8 7 10 C0.07 10 -6.86 10 -14 10 C-11.30432672 1.91298016 -8.69514122 -0.94856086 0 0 Z " fill="#E4E5E8" transform="translate(859,1058)"/>
<path d="M0 0 C0.33 0 0.66 0 1 0 C3.39037071 9.42334245 3.27408065 18.7910238 3.20581055 28.4375 C3.18730419 31.15373921 3.18530304 33.86964119 3.18554688 36.5859375 C3.18063966 38.30989881 3.17481485 40.0338578 3.16796875 41.7578125 C3.16685593 42.57122101 3.1657431 43.38462952 3.16459656 44.22268677 C3.1161316 49.8838684 3.1161316 49.8838684 2 51 C1.76346477 53.52596259 1.57826308 56.03107207 1.4375 58.5625 C1.39431641 59.27341797 1.35113281 59.98433594 1.30664062 60.71679688 C1.20028223 62.47761912 1.09961154 64.2387832 1 66 C0.67 66 0.34 66 0 66 C0 44.22 0 22.44 0 0 Z " fill="#E4E4E7" transform="translate(580,728)"/>
<path d="M0 0 C0.99 0.33 1.98 0.66 3 1 C3.98466253 3.95398758 4.12127836 5.85249022 4.11352539 8.93041992 C4.11344986 9.93123093 4.11337433 10.93204193 4.11329651 11.96318054 C4.10813522 13.04138565 4.10297394 14.11959076 4.09765625 15.23046875 C4.0962413 16.33602615 4.09482635 17.44158356 4.09336853 18.5806427 C4.08776514 22.11628917 4.07521204 25.65187262 4.0625 29.1875 C4.05748544 31.58268138 4.05292246 33.97786375 4.04882812 36.37304688 C4.03779461 42.24871947 4.02105316 48.12435523 4 54 C3.34 54 2.68 54 2 54 C1.9845388 53.14008705 1.9845388 53.14008705 1.96876526 52.26280212 C1.86027741 46.27641363 1.74571603 40.29016287 1.62768555 34.30395508 C1.58447176 32.07221367 1.54278755 29.84044207 1.50268555 27.60864258 C1.44465344 24.39395061 1.38105502 21.17940864 1.31640625 17.96484375 C1.29969376 16.97290512 1.28298126 15.98096649 1.26576233 14.95896912 C1.15812152 9.88354585 0.85408638 5.00597958 0 0 Z " fill="#252E41" transform="translate(967,740)"/>
<path d="M0 0 C1.8125 1.1875 1.8125 1.1875 3 3 C3.3125 5.5625 3.3125 5.5625 3 8 C1 10 1 10 -2.5 10.25 C-6 10 -6 10 -8 8 C-8.36487512 5.15397406 -8.40199375 3.6135694 -6.8125 1.1875 C-4.35092224 -0.42525784 -2.88934264 -0.4334014 0 0 Z " fill="#202A41" transform="translate(696,1035)"/>
<path d="M0 0 C2 2 2 2 2.22705078 4.33837891 C2.21657715 5.29147949 2.20610352 6.24458008 2.1953125 7.2265625 C2.18886719 8.2578125 2.18242188 9.2890625 2.17578125 10.3515625 C2.15902344 11.43179687 2.14226563 12.51203125 2.125 13.625 C2.11597656 14.71296875 2.10695313 15.8009375 2.09765625 16.921875 C2.07403409 19.61480152 2.04109556 22.30729255 2 25 C3.65 25 5.3 25 7 25 C7 17.08 7 9.16 7 1 C7.33 1 7.66 1 8 1 C8 9.58 8 18.16 8 27 C5.36 27 2.72 27 0 27 C0 18.09 0 9.18 0 0 Z " fill="#131E32" transform="translate(908,1063)"/>
<path d="M0 0 C0.33 0.66 0.66 1.32 1 2 C1.66 2 2.32 2 3 2 C4.02361309 6.21133553 4.11489283 10.16189864 4.09765625 14.48828125 C4.0962413 15.19147995 4.09482635 15.89467865 4.09336853 16.6191864 C4.08780109 18.85033544 4.07525475 21.08138164 4.0625 23.3125 C4.05748079 24.83137875 4.05291862 26.35025909 4.04882812 27.86914062 C4.03784236 31.57946012 4.02060034 35.28972001 4 39 C3.34 39 2.68 39 2 39 C1.97494385 38.20940186 1.9498877 37.41880371 1.92407227 36.60424805 C1.80685565 32.96521698 1.68470755 29.32636675 1.5625 25.6875 C1.52318359 24.44419922 1.48386719 23.20089844 1.44335938 21.91992188 C1.19298646 14.58206944 0.76882404 7.3024134 0 0 Z " fill="#357FF5" transform="translate(741,398)"/>
<path d="M0 0 C8.61247545 3.78156968 16.00852212 12.18222173 21 20 C21 20.66 21 21.32 21 22 C16.38 22 11.76 22 7 22 C7 21.67 7 21.34 7 21 C10.3 20.34 13.6 19.68 17 19 C16.401875 18.443125 15.80375 17.88625 15.1875 17.3125 C13 15 13 15 11.625 12.5625 C9.56416915 9.31272827 6.99983464 7.38762349 4 5 C2.63113049 3.70317626 1.2830709 2.38176866 0 1 C0 0.67 0 0.34 0 0 Z " fill="#4684F1" transform="translate(702,335)"/>
<path d="M0 0 C21.12 0 42.24 0 64 0 C63.67 0.99 63.34 1.98 63 3 C62.34 2.67 61.68 2.34 61 2 C59.06028622 1.87994453 57.11656384 1.82266656 55.17333984 1.79467773 C53.95222504 1.77473251 52.73111023 1.75478729 51.47299194 1.73423767 C50.13564177 1.71725344 48.79829025 1.70037463 47.4609375 1.68359375 C46.09615447 1.66302397 44.73137782 1.64202749 43.36660767 1.62062073 C39.77292027 1.56540241 36.1791754 1.51599213 32.58538818 1.46777344 C28.91885254 1.41755663 25.25240044 1.36187151 21.5859375 1.30664062 C14.39069574 1.199062 7.19538454 1.09761643 0 1 C0 0.67 0 0.34 0 0 Z " fill="#212C42" transform="translate(406,972)"/>
<path d="M0 0 C8.58 0.66 17.16 1.32 26 2 C26 2.33 26 2.66 26 3 C20.06 3.495 20.06 3.495 14 4 C14.66 5.65 15.32 7.3 16 9 C10.0942118 7.44584521 5.02261107 4.40465533 0 1 C0 0.67 0 0.34 0 0 Z " fill="#3F465A" transform="translate(369,1115)"/>
<path d="M0 0 C0.99 0.33 1.98 0.66 3 1 C2.319375 1.53625 1.63875 2.0725 0.9375 2.625 C-1.80464042 4.8420497 -4.48842406 7.10896728 -7.15625 9.4140625 C-8.41969357 10.50083811 -9.69097219 11.57855211 -10.96875 12.6484375 C-11.5978125 13.17695313 -12.226875 13.70546875 -12.875 14.25 C-13.44992187 14.72953125 -14.02484375 15.2090625 -14.6171875 15.703125 C-16.13053002 16.97233181 -16.13053002 16.97233181 -17 19 C-17.99 19 -18.98 19 -20 19 C-16.92088484 11.52214891 -7.10142494 3.77211948 0 0 Z " fill="#789AEE" transform="translate(571,327)"/>
<path d="M0 0 C0 0.66 0 1.32 0 2 C-9.57 2 -19.14 2 -29 2 C-28.67 1.34 -28.34 0.68 -28 0 C-23.70868391 -0.19619224 -19.41693898 -0.38048583 -15.125 -0.5625 C-13.90167969 -0.61857422 -12.67835938 -0.67464844 -11.41796875 -0.73242188 C-9.66806641 -0.80493164 -9.66806641 -0.80493164 -7.8828125 -0.87890625 C-6.80402832 -0.9260376 -5.72524414 -0.97316895 -4.61376953 -1.02172852 C-2 -1 -2 -1 0 0 Z " fill="#141E32" transform="translate(463,996)"/>
<path d="M0 0 C0 0.33 0 0.66 0 1 C-0.76183594 1.10957031 -1.52367187 1.21914063 -2.30859375 1.33203125 C-7.17574473 2.07942148 -11.82344975 2.80640625 -16.4375 4.5625 C-22.10975806 6.63465331 -28.01609228 6.73178775 -34 7 C-30.39481039 4.59654026 -26.84720606 3.86698402 -22.6875 2.9375 C-21.94048828 2.76412109 -21.19347656 2.59074219 -20.42382812 2.41210938 C-13.51350008 0.82861893 -7.09501287 -0.12232781 0 0 Z " fill="#476FCF" transform="translate(682,466)"/>
<path d="M0 0 C0 1.32 0 2.64 0 4 C-3.3 4.66 -6.6 5.32 -10 6 C-10 5.34 -10 4.68 -10 4 C-10.99 3.67 -11.98 3.34 -13 3 C-11 0 -11 0 -8.75 -0.75 C-5.65002866 -1.03181558 -3.03692247 -0.63563494 0 0 Z " fill="#EDF3FD" transform="translate(437,1030)"/>
<path d="M0 0 C0 0.33 0 0.66 0 1 C-18.62747525 4.15045969 -18.62747525 4.15045969 -26 4 C-18.71371878 -0.85752081 -8.48635444 -0.3006976 0 0 Z " fill="#2B7CF9" transform="translate(732,371)"/>
<path d="M0 0 C4.62 0 9.24 0 14 0 C13.67 3.3 13.34 6.6 13 10 C12.67 10 12.34 10 12 10 C12 7.36 12 4.72 12 2 C8.37 2 4.74 2 1 2 C1 4.64 1 7.28 1 10 C0.67 10 0.34 10 0 10 C0 6.7 0 3.4 0 0 Z " fill="#121D32" transform="translate(909,728)"/>
<path d="M0 0 C2.6058889 -0.13494246 5.20482111 -0.23402299 7.8125 -0.3125 C8.55048828 -0.35439453 9.28847656 -0.39628906 10.04882812 -0.43945312 C12.20703125 -0.48828125 12.20703125 -0.48828125 16 0 C18.07421875 2.39453125 18.07421875 2.39453125 19 5 C18.67 5.66 18.34 6.32 18 7 C17.34 6.67 16.68 6.34 16 6 C16 5.01 16 4.02 16 3 C12.7 3 9.4 3 6 3 C6 2.67 6 2.34 6 2 C4.35 1.67 2.7 1.34 1 1 C0.67 1.66 0.34 2.32 0 3 C0 2.01 0 1.02 0 0 Z " fill="#2B3447" transform="translate(483,728)"/>
<path d="M0 0 C0 0.33 0 0.66 0 1 C-3.63 1.33 -7.26 1.66 -11 2 C-10.67 2.66 -10.34 3.32 -10 4 C-14.29 4.99 -18.58 5.98 -23 7 C-15.67073501 -0.32926499 -9.98841524 -0.44283614 0 0 Z " fill="#485264" transform="translate(951,726)"/>
<path d="M0 0 C1.24040039 0.01353516 1.24040039 0.01353516 2.50585938 0.02734375 C4.52486708 0.05068488 6.54372356 0.08654712 8.5625 0.125 C8.5625 0.455 8.5625 0.785 8.5625 1.125 C7.70785156 1.17398438 6.85320312 1.22296875 5.97265625 1.2734375 C4.86792969 1.34820313 3.76320313 1.42296875 2.625 1.5 C1.52285156 1.56960938 0.42070312 1.63921875 -0.71484375 1.7109375 C-1.61332031 1.84757813 -2.51179688 1.98421875 -3.4375 2.125 C-3.7675 2.785 -4.0975 3.445 -4.4375 4.125 C-7.48136724 4.20726668 -9.50925348 4.10108217 -12.4375 3.125 C-13.76856622 2.78272583 -15.10150079 2.44748257 -16.4375 2.125 C-10.81492839 0.2080427 -5.91380615 -0.12389924 0 0 Z " fill="#6C7381" transform="translate(445.4375,725.875)"/>
<path d="M0 0 C1.67542976 0.28604898 3.34385343 0.61781233 5 1 C2.00873681 2.72206188 -0.10685713 3.24179923 -3.546875 3.1953125 C-4.81337891 3.18564453 -4.81337891 3.18564453 -6.10546875 3.17578125 C-6.97816406 3.15902344 -7.85085938 3.14226563 -8.75 3.125 C-10.08224609 3.11146484 -10.08224609 3.11146484 -11.44140625 3.09765625 C-13.62788058 3.07414577 -15.81380094 3.04128499 -18 3 C-18 2.67 -18 2.34 -18 2 C-12.9459238 1.12103023 -8.16826706 0.93853131 -3.0390625 1.0625 C-1.00482706 1.23319748 -1.00482706 1.23319748 0 0 Z " fill="#3B4355" transform="translate(1017,793)"/>
<path d="M0 0 C0.33 0 0.66 0 1 0 C1.27545028 2.93713834 1.52119478 5.87168002 1.75 8.8125 C1.83121094 9.64587891 1.91242188 10.47925781 1.99609375 11.33789062 C2.16124768 13.62251994 2.27778935 15.72545624 2 18 C0.015625 20.07421875 0.015625 20.07421875 -2 21 C-3.32 20.34 -4.64 19.68 -6 19 C-4.02 18.34 -2.04 17.68 0 17 C0 11.39 0 5.78 0 0 Z " fill="#475063" transform="translate(331,758)"/>
<path d="M0 0 C1.46373047 0.02707031 1.46373047 0.02707031 2.95703125 0.0546875 C3.69308594 0.07789063 4.42914062 0.10109375 5.1875 0.125 C5.1875 0.455 5.1875 0.785 5.1875 1.125 C2.2175 1.125 -0.7525 1.125 -3.8125 1.125 C-3.8125 1.785 -3.8125 2.445 -3.8125 3.125 C-9.2575 4.61 -9.2575 4.61 -14.8125 6.125 C-9.81466374 1.12716374 -6.96087805 -0.167732 0 0 Z " fill="#4A5465" transform="translate(622.8125,1065.875)"/>
<path d="M0 0 C0 0.99 0 1.98 0 3 C-0.99 3.66 -1.98 4.32 -3 5 C-3.58189266 7.42521494 -3.58189266 7.42521494 -3.6875 10.125 C-3.75324219 11.03507812 -3.81898438 11.94515625 -3.88671875 12.8828125 C-3.92410156 13.58148437 -3.96148437 14.28015625 -4 15 C-6.36968107 12.63031893 -6.37023806 11.87986199 -6.5 8.625 C-6.46875 6.19921875 -6.46875 6.19921875 -6 4 C-3 1.4375 -3 1.4375 0 0 Z " fill="#7CA1EE" transform="translate(411,1042)"/>
<path d="M0 0 C3.96 0 7.92 0 12 0 C12 3.3 12 6.6 12 10 C11.01 10.495 11.01 10.495 10 11 C9.34 10.34 8.68 9.68 8 9 C8.66 8.34 9.32 7.68 10 7 C10.39764263 5.01178687 10.73775349 3.01055661 11 1 C7.37 1 3.74 1 0 1 C0 0.67 0 0.34 0 0 Z " fill="#EDEEF0" transform="translate(548,1069)"/>
<path d="M0 0 C2.475 0.495 2.475 0.495 5 1 C5 1.66 5 2.32 5 3 C-1.6 3 -8.2 3 -15 3 C-15 2.67 -15 2.34 -15 2 C-10.05 1.67 -5.1 1.34 0 1 C0 0.67 0 0.34 0 0 Z " fill="#B5B9C0" transform="translate(400,1107)"/>
<path d="M0 0 C3.3 0.66 6.6 1.32 10 2 C10 2.33 10 2.66 10 3 C4.06 3.495 4.06 3.495 -2 4 C-2 3.34 -2 2.68 -2 2 C-1.34 2 -0.68 2 0 2 C0 1.34 0 0.68 0 0 Z " fill="#222C44" transform="translate(597,591)"/>
<path d="M0 0 C0.99 0 1.98 0 3 0 C2 7.42857143 2 7.42857143 1 11 C0.01 10.67 -0.98 10.34 -2 10 C-1.34 6.7 -0.68 3.4 0 0 Z " fill="#293346" transform="translate(772,471)"/>
<path d="M0 0 C0 1.32 0 2.64 0 4 C-4.29 3.34 -8.58 2.68 -13 2 C-13 1.67 -13 1.34 -13 1 C-10.02148438 1.04882812 -10.02148438 1.04882812 -7.04296875 1.09765625 C-4.54365249 0.97818607 -2.50594088 0 0 0 Z " fill="#367AF0" transform="translate(741,449)"/>
<path d="M0 0 C-2.31 0.66 -4.62 1.32 -7 2 C-7 1.34 -7 0.68 -7 0 C-10.3 0 -13.6 0 -17 0 C-17 -0.33 -17 -0.66 -17 -1 C-14.91814549 -1.22262606 -12.83439574 -1.42757926 -10.75 -1.625 C-9.58984375 -1.74101563 -8.4296875 -1.85703125 -7.234375 -1.9765625 C-4.06127909 -1.99955595 -2.61682756 -1.69705154 0 0 Z " fill="#404A5E" transform="translate(877,784)"/>
<path d="M0 0 C0 0.66 0 1.32 0 2 C-5.29411765 6 -5.29411765 6 -9 6 C-9 5.01 -9 4.02 -9 3 C-3.375 0 -3.375 0 0 0 Z " fill="#384154" transform="translate(427,730)"/>
<path d="M0 0 C0 0.33 0 0.66 0 1 C-0.84304688 1.13277344 -1.68609375 1.26554687 -2.5546875 1.40234375 C-3.65039062 1.57894531 -4.74609375 1.75554687 -5.875 1.9375 C-6.96554687 2.11152344 -8.05609375 2.28554688 -9.1796875 2.46484375 C-11.93821546 2.85551159 -11.93821546 2.85551159 -14 4 C-16.00800456 3.71887936 -18.01014051 3.38932033 -20 3 C-20 2.67 -20 2.34 -20 2 C-13.25846717 0.74158054 -6.86515862 -0.26404456 0 0 Z " fill="#6F8DD6" transform="translate(682,466)"/>
<path d="M0 0 C0 0.33 0 0.66 0 1 C-1.546875 1.433125 -1.546875 1.433125 -3.125 1.875 C-5.57067146 2.56455037 -7.91443717 3.3278171 -10.3125 4.1875 C-13 5 -13 5 -15 4 C-9.60931587 0.40621058 -6.46326465 -0.45356243 0 0 Z " fill="#C2C5CB" transform="translate(866,738)"/>
<path d="M0 0 C0.99 0.66 1.98 1.32 3 2 C1.8803014 3.00593243 0.7540588 4.0045849 -0.375 5 C-1.00148438 5.556875 -1.62796875 6.11375 -2.2734375 6.6875 C-4 8 -4 8 -6 8 C-4.55746343 4.63408134 -2.66735273 2.48952921 0 0 Z " fill="#253047" transform="translate(991,731)"/>
<path d="M0 0 C0.66 0.33 1.32 0.66 2 1 C1.09515208 2.15518918 0.1755794 3.29885406 -0.75 4.4375 C-1.26046875 5.07558594 -1.7709375 5.71367188 -2.296875 6.37109375 C-4.19667629 8.18810554 -5.43586908 8.60423197 -8 9 C-7.04270084 7.87411986 -6.08412105 6.7493285 -5.125 5.625 C-4.59132813 4.99851562 -4.05765625 4.37203125 -3.5078125 3.7265625 C-2.38567993 2.44163349 -1.20628025 1.20628025 0 0 Z " fill="#263044" transform="translate(273,707)"/>
<path d="M0 0 C0.66 0 1.32 0 2 0 C2 0.66 2 1.32 2 2 C2.66 2 3.32 2 4 2 C3.34 3.98 2.68 5.96 2 8 C0.4375 6.25 0.4375 6.25 -1 4 C-0.6875 1.75 -0.6875 1.75 0 0 Z " fill="#E0E2E4" transform="translate(753,1071)"/>
<path d="M0 0 C1 1 1 1 1.0625 3.5625 C1.041875 4.366875 1.02125 5.17125 1 6 C0.01 4.68 -0.98 3.36 -2 2 C-4.31 2.33 -6.62 2.66 -9 3 C-9.33 2.34 -9.66 1.68 -10 1 C-6.74696956 -0.62651522 -3.60774398 -0.11453156 0 0 Z " fill="#277CFA" transform="translate(445,1033)"/>
<path d="M0 0 C1.17539996 0.92652701 2.34010577 1.86663387 3.5 2.8125 C4.1496875 3.33457031 4.799375 3.85664062 5.46875 4.39453125 C7 6 7 6 7 9 C5.82460004 8.07347299 4.65989423 7.13336613 3.5 6.1875 C2.52546875 5.40439453 2.52546875 5.40439453 1.53125 4.60546875 C0 3 0 3 0 0 Z " fill="#DEE0E4" transform="translate(264,777)"/>
<path d="M0 0 C1.98 0 3.96 0 6 0 C6 2.31 6 4.62 6 7 C5.34 6.67 4.68 6.34 4 6 C4 4.68 4 3.36 4 2 C2.68 2 1.36 2 0 2 C0 1.34 0 0.68 0 0 Z " fill="#131E32" transform="translate(826,1082)"/>
<path d="M0 0 C0.66 0 1.32 0 2 0 C0.55373881 3.81287042 -1.30194812 5.32707177 -5 7 C-7.3125 6.6875 -7.3125 6.6875 -9 6 C-7.2421875 5.0234375 -5.484375 4.046875 -3.7265625 3.0703125 C-1.8387386 1.99102726 -1.8387386 1.99102726 0 0 Z " fill="#2E384E" transform="translate(884,775)"/>
<path d="M0 0 C-1.43011973 0.86646667 -2.86940619 1.71781829 -4.3125 2.5625 C-5.51326172 3.27599609 -5.51326172 3.27599609 -6.73828125 4.00390625 C-9 5 -9 5 -12 4 C-8.71298741 1.21868166 -4.24676932 -2.12338466 0 0 Z " fill="#5E84D7" transform="translate(647,474)"/>
<path d="M0 0 C4.455 0.99 4.455 0.99 9 2 C8.67 2.99 8.34 3.98 8 5 C5.36 3.68 2.72 2.36 0 1 C0 0.67 0 0.34 0 0 Z " fill="#343D51" transform="translate(508,611)"/>
<path d="M0 0 C0.66 0.33 1.32 0.66 2 1 C0.54744301 4.82946843 -1.42895561 6.12050295 -5 8 C-5 5 -5 5 -2.5 2.3125 C-1.675 1.549375 -0.85 0.78625 0 0 Z " fill="#293448" transform="translate(721,558)"/>
<path d="M0 0 C2.7710688 2.34591852 3.52059284 4.14776201 4.1875 7.6875 C4.34605469 8.49574219 4.50460937 9.30398438 4.66796875 10.13671875 C4.77753906 10.75160156 4.88710938 11.36648438 5 12 C1.75254486 7.86687528 0 5.36067372 0 0 Z " fill="#151D31" transform="translate(658,1068)"/>
<path d="M0 0 C0.33 0.66 0.66 1.32 1 2 C1.99 1.67 2.98 1.34 4 1 C4 4 4 4 2 7 C1.34 7 0.68 7 0 7 C0 4.69 0 2.38 0 0 Z " fill="#C0C3C9" transform="translate(587,1052)"/>
<path d="M0 0 C1.125 1.6875 1.125 1.6875 2 4 C1.125 6.75 1.125 6.75 0 9 C-0.66 8.34 -1.32 7.68 -2 7 C-1.43181818 1.43181818 -1.43181818 1.43181818 0 0 Z " fill="#EAEBEE" transform="translate(683,767)"/>
<path d="M0 0 C0.66 0.99 1.32 1.98 2 3 C0.35 4.65 -1.3 6.3 -3 8 C-3.66 7.67 -4.32 7.34 -5 7 C-3.35 4.69 -1.7 2.38 0 0 Z " fill="#2C364A" transform="translate(748,526)"/>
<path d="M0 0 C0.66 0 1.32 0 2 0 C1.45276317 3.37462715 0.9451 5.08235 -1 8 C-1.66 8 -2.32 8 -3 8 C-1.125 2.25 -1.125 2.25 0 0 Z " fill="#DADBDF" transform="translate(491,359)"/>
<path d="M0 0 C0 3.61537605 -0.89229241 5.11165997 -3 8 C-3.99 8 -4.98 8 -6 8 C-4.55746343 4.63408134 -2.66735273 2.48952921 0 0 Z " fill="#85A2ED" transform="translate(557,338)"/>
<path d="M0 0 C5.75 1.75 5.75 1.75 8 4 C5.69 4 3.38 4 1 4 C0.67 2.68 0.34 1.36 0 0 Z " fill="#3C455A" transform="translate(394,1105)"/>
<path d="M0 0 C1.98 0.99 1.98 0.99 4 2 C4 3.65 4 5.3 4 7 C3.01 6.67 2.02 6.34 1 6 C0.67 4.02 0.34 2.04 0 0 Z " fill="#2B3347" transform="translate(695,1036)"/>
<path d="M0 0 C3.4375 0.8125 3.4375 0.8125 7 2 C7.33 2.99 7.66 3.98 8 5 C5.03 4.01 2.06 3.02 -1 2 C-0.67 1.34 -0.34 0.68 0 0 Z " fill="#363F52" transform="translate(506,581)"/>
<path d="M0 0 C0 0.66 0 1.32 0 2 C-4.455 3.485 -4.455 3.485 -9 5 C-9 4.34 -9 3.68 -9 3 C-3.375 0 -3.375 0 0 0 Z " fill="#5179D3" transform="translate(635,478)"/>
<path d="M0 0 C-0.33 0.99 -0.66 1.98 -1 3 C-3.97 2.67 -6.94 2.34 -10 2 C-10 1.67 -10 1.34 -10 1 C-6.56484998 0.37542727 -3.50935186 0 0 0 Z " fill="#D2E1F9" transform="translate(711,358)"/>
<path d="M0 0 C0.25 2.3125 0.25 2.3125 0 5 C-2 6.8125 -2 6.8125 -4 8 C-3.74438677 5.6568787 -3.40729228 3.32156597 -3 1 C-1 0 -1 0 0 0 Z " fill="#EEEEF0" transform="translate(799,224)"/>
<path d="M0 0 C0.66 0.66 1.32 1.32 2 2 C0 4 0 4 -3.125 4.125 C-4.548125 4.063125 -4.548125 4.063125 -6 4 C-6.33 4.99 -6.66 5.98 -7 7 C-7 5.68 -7 4.36 -7 3 C-5.5459375 2.5359375 -5.5459375 2.5359375 -4.0625 2.0625 C-1.15934208 1.30476658 -1.15934208 1.30476658 0 0 Z " fill="#121D33" transform="translate(747,1095)"/>
<path d="M0 0 C0.66 0 1.32 0 2 0 C2.33 2.64 2.66 5.28 3 8 C1.5 6.8125 1.5 6.8125 0 5 C-0.1875 2.3125 -0.1875 2.3125 0 0 Z " fill="#424A5C" transform="translate(728,1082)"/>
<path d="M0 0 C0.66 1.32 1.32 2.64 2 4 C1.01 4.66 0.02 5.32 -1 6 C-1.66 5.34 -2.32 4.68 -3 4 C-2.67 3.67 -2.34 3.34 -2 3 C-2.66 2.34 -3.32 1.68 -4 1 C-2 0 -2 0 0 0 Z " fill="#2B374C" transform="translate(630,1082)"/>
<path d="M0 0 C0 3 0 3 -2.5 5.6875 C-3.325 6.450625 -4.15 7.21375 -5 8 C-5 5 -5 5 -2.5 2.3125 C-1.675 1.549375 -0.85 0.78625 0 0 Z " fill="#2D3649" transform="translate(785,583)"/>
<path d="M0 0 C3.35595828 0.59927826 5.37801226 1.84622436 8 4 C5 5 5 5 2.3125 3.6875 C1.549375 3.130625 0.78625 2.57375 0 2 C0 1.34 0 0.68 0 0 Z " fill="#212B40" transform="translate(545,570)"/>
</svg>
